<svg version="1.1" xmlns="http://www.w3.org/2000/svg" xmlns:xlink="http://www.w3.org/1999/xlink" width="1044" height="764"><defs/><g><text fill="#eeeeee" stroke="none" font-family="Arial" font-size="24px" font-style="normal" font-weight="normal" text-decoration="none" x="0" y="0">UNREGISTERED</text><text fill="#eeeeee" stroke="none" font-family="Arial" font-size="24px" font-style="normal" font-weight="normal" text-decoration="none" x="0" y="30">UNREGISTERED</text><text fill="#eeeeee" stroke="none" font-family="Arial" font-size="24px" font-style="normal" font-weight="normal" text-decoration="none" x="0" y="60">UNREGISTERED</text><text fill="#eeeeee" stroke="none" font-family="Arial" font-size="24px" font-style="normal" font-weight="normal" text-decoration="none" x="0" y="90">UNREGISTERED</text><text fill="#eeeeee" stroke="none" font-family="Arial" font-size="24px" font-style="normal" font-weight="normal" text-decoration="none" x="0" y="120">UNREGISTERED</text><text fill="#eeeeee" stroke="none" font-family="Arial" font-size="24px" font-style="normal" font-weight="normal" text-decoration="none" x="0" y="150">UNREGISTERED</text><text fill="#eeeeee" stroke="none" font-family="Arial" font-size="24px" font-style="normal" font-weight="normal" text-decoration="none" x="0" y="180">UNREGISTERED</text><text fill="#eeeeee" stroke="none" font-family="Arial" font-size="24px" font-style="normal" font-weight="normal" text-decoration="none" x="0" y="210">UNREGISTERED</text><text fill="#eeeeee" stroke="none" font-family="Arial" font-size="24px" font-style="normal" font-weight="normal" text-decoration="none" x="0" y="240">UNREGISTERED</text><text fill="#eeeeee" stroke="none" font-family="Arial" font-size="24px" font-style="normal" font-weight="normal" text-decoration="none" x="0" y="270">UNREGISTERED</text><text fill="#eeeeee" stroke="none" font-family="Arial" font-size="24px" font-style="normal" font-weight="normal" text-decoration="none" x="0" y="300">UNREGISTERED</text><text fill="#eeeeee" stroke="none" font-family="Arial" font-size="24px" font-style="normal" font-weight="normal" text-decoration="none" x="0" y="330">UNREGISTERED</text><text fill="#eeeeee" stroke="none" font-family="Arial" font-size="24px" font-style="normal" font-weight="normal" text-decoration="none" x="0" y="360">UNREGISTERED</text><text fill="#eeeeee" stroke="none" font-family="Arial" font-size="24px" font-style="normal" font-weight="normal" text-decoration="none" x="0" y="390">UNREGISTERED</text><text fill="#eeeeee" stroke="none" font-family="Arial" font-size="24px" font-style="normal" font-weight="normal" text-decoration="none" x="0" y="420">UNREGISTERED</text><text fill="#eeeeee" stroke="none" font-family="Arial" font-size="24px" font-style="normal" font-weight="normal" text-decoration="none" x="0" y="450">UNREGISTERED</text><text fill="#eeeeee" stroke="none" font-family="Arial" font-size="24px" font-style="normal" font-weight="normal" text-decoration="none" x="0" y="480">UNREGISTERED</text><text fill="#eeeeee" stroke="none" font-family="Arial" font-size="24px" font-style="normal" font-weight="normal" text-decoration="none" x="0" y="510">UNREGISTERED</text><text fill="#eeeeee" stroke="none" font-family="Arial" font-size="24px" font-style="normal" font-weight="normal" text-decoration="none" x="0" y="540">UNREGISTERED</text><text fill="#eeeeee" stroke="none" font-family="Arial" font-size="24px" font-style="normal" font-weight="normal" text-decoration="none" x="0" y="570">UNREGISTERED</text><text fill="#eeeeee" stroke="none" font-family="Arial" font-size="24px" font-style="normal" font-weight="normal" text-decoration="none" x="0" y="600">UNREGISTERED</text><text fill="#eeeeee" stroke="none" font-family="Arial" font-size="24px" font-style="normal" font-weight="normal" text-decoration="none" x="0" y="630">UNREGISTERED</text><text fill="#eeeeee" stroke="none" font-family="Arial" font-size="24px" font-style="normal" font-weight="normal" text-decoration="none" x="0" y="660">UNREGISTERED</text><text fill="#eeeeee" stroke="none" font-family="Arial" font-size="24px" font-style="normal" font-weight="normal" text-decoration="none" x="0" y="690">UNREGISTERED</text><text fill="#eeeeee" stroke="none" font-family="Arial" font-size="24px" font-style="normal" font-weight="normal" text-decoration="none" x="0" y="720">UNREGISTERED</text><text fill="#eeeeee" stroke="none" font-family="Arial" font-size="24px" font-style="normal" font-weight="normal" text-decoration="none" x="0" y="750">UNREGISTERED</text><text fill="#eeeeee" stroke="none" font-family="Arial" font-size="24px" font-style="normal" font-weight="normal" text-decoration="none" x="200" y="0">UNREGISTERED</text><text fill="#eeeeee" stroke="none" font-family="Arial" font-size="24px" font-style="normal" font-weight="normal" text-decoration="none" x="200" y="30">UNREGISTERED</text><text fill="#eeeeee" stroke="none" font-family="Arial" font-size="24px" font-style="normal" font-weight="normal" text-decoration="none" x="200" y="60">UNREGISTERED</text><text fill="#eeeeee" stroke="none" font-family="Arial" font-size="24px" font-style="normal" font-weight="normal" text-decoration="none" x="200" y="90">UNREGISTERED</text><text fill="#eeeeee" stroke="none" font-family="Arial" font-size="24px" font-style="normal" font-weight="normal" text-decoration="none" x="200" y="120">UNREGISTERED</text><text fill="#eeeeee" stroke="none" font-family="Arial" font-size="24px" font-style="normal" font-weight="normal" text-decoration="none" x="200" y="150">UNREGISTERED</text><text fill="#eeeeee" stroke="none" font-family="Arial" font-size="24px" font-style="normal" font-weight="normal" text-decoration="none" x="200" y="180">UNREGISTERED</text><text fill="#eeeeee" stroke="none" font-family="Arial" font-size="24px" font-style="normal" font-weight="normal" text-decoration="none" x="200" y="210">UNREGISTERED</text><text fill="#eeeeee" stroke="none" font-family="Arial" font-size="24px" font-style="normal" font-weight="normal" text-decoration="none" x="200" y="240">UNREGISTERED</text><text fill="#eeeeee" stroke="none" font-family="Arial" font-size="24px" font-style="normal" font-weight="normal" text-decoration="none" x="200" y="270">UNREGISTERED</text><text fill="#eeeeee" stroke="none" font-family="Arial" font-size="24px" font-style="normal" font-weight="normal" text-decoration="none" x="200" y="300">UNREGISTERED</text><text fill="#eeeeee" stroke="none" font-family="Arial" font-size="24px" font-style="normal" font-weight="normal" text-decoration="none" x="200" y="330">UNREGISTERED</text><text fill="#eeeeee" stroke="none" font-family="Arial" font-size="24px" font-style="normal" font-weight="normal" text-decoration="none" x="200" y="360">UNREGISTERED</text><text fill="#eeeeee" stroke="none" font-family="Arial" font-size="24px" font-style="normal" font-weight="normal" text-decoration="none" x="200" y="390">UNREGISTERED</text><text fill="#eeeeee" stroke="none" font-family="Arial" font-size="24px" font-style="normal" font-weight="normal" text-decoration="none" x="200" y="420">UNREGISTERED</text><text fill="#eeeeee" stroke="none" font-family="Arial" font-size="24px" font-style="normal" font-weight="normal" text-decoration="none" x="200" y="450">UNREGISTERED</text><text fill="#eeeeee" stroke="none" font-family="Arial" font-size="24px" font-style="normal" font-weight="normal" text-decoration="none" x="200" y="480">UNREGISTERED</text><text fill="#eeeeee" stroke="none" font-family="Arial" font-size="24px" font-style="normal" font-weight="normal" text-decoration="none" x="200" y="510">UNREGISTERED</text><text fill="#eeeeee" stroke="none" font-family="Arial" font-size="24px" font-style="normal" font-weight="normal" text-decoration="none" x="200" y="540">UNREGISTERED</text><text fill="#eeeeee" stroke="none" font-family="Arial" font-size="24px" font-style="normal" font-weight="normal" text-decoration="none" x="200" y="570">UNREGISTERED</text><text fill="#eeeeee" stroke="none" font-family="Arial" font-size="24px" font-style="normal" font-weight="normal" text-decoration="none" x="200" y="600">UNREGISTERED</text><text fill="#eeeeee" stroke="none" font-family="Arial" font-size="24px" font-style="normal" font-weight="normal" text-decoration="none" x="200" y="630">UNREGISTERED</text><text fill="#eeeeee" stroke="none" font-family="Arial" font-size="24px" font-style="normal" font-weight="normal" text-decoration="none" x="200" y="660">UNREGISTERED</text><text fill="#eeeeee" stroke="none" font-family="Arial" font-size="24px" font-style="normal" font-weight="normal" text-decoration="none" x="200" y="690">UNREGISTERED</text><text fill="#eeeeee" stroke="none" font-family="Arial" font-size="24px" font-style="normal" font-weight="normal" text-decoration="none" x="200" y="720">UNREGISTERED</text><text fill="#eeeeee" stroke="none" font-family="Arial" font-size="24px" font-style="normal" font-weight="normal" text-decoration="none" x="200" y="750">UNREGISTERED</text><text fill="#eeeeee" stroke="none" font-family="Arial" font-size="24px" font-style="normal" font-weight="normal" text-decoration="none" x="400" y="0">UNREGISTERED</text><text fill="#eeeeee" stroke="none" font-family="Arial" font-size="24px" font-style="normal" font-weight="normal" text-decoration="none" x="400" y="30">UNREGISTERED</text><text fill="#eeeeee" stroke="none" font-family="Arial" font-size="24px" font-style="normal" font-weight="normal" text-decoration="none" x="400" y="60">UNREGISTERED</text><text fill="#eeeeee" stroke="none" font-family="Arial" font-size="24px" font-style="normal" font-weight="normal" text-decoration="none" x="400" y="90">UNREGISTERED</text><text fill="#eeeeee" stroke="none" font-family="Arial" font-size="24px" font-style="normal" font-weight="normal" text-decoration="none" x="400" y="120">UNREGISTERED</text><text fill="#eeeeee" stroke="none" font-family="Arial" font-size="24px" font-style="normal" font-weight="normal" text-decoration="none" x="400" y="150">UNREGISTERED</text><text fill="#eeeeee" stroke="none" font-family="Arial" font-size="24px" font-style="normal" font-weight="normal" text-decoration="none" x="400" y="180">UNREGISTERED</text><text fill="#eeeeee" stroke="none" font-family="Arial" font-size="24px" font-style="normal" font-weight="normal" text-decoration="none" x="400" y="210">UNREGISTERED</text><text fill="#eeeeee" stroke="none" font-family="Arial" font-size="24px" font-style="normal" font-weight="normal" text-decoration="none" x="400" y="240">UNREGISTERED</text><text fill="#eeeeee" stroke="none" font-family="Arial" font-size="24px" font-style="normal" font-weight="normal" text-decoration="none" x="400" y="270">UNREGISTERED</text><text fill="#eeeeee" stroke="none" font-family="Arial" font-size="24px" font-style="normal" font-weight="normal" text-decoration="none" x="400" y="300">UNREGISTERED</text><text fill="#eeeeee" stroke="none" font-family="Arial" font-size="24px" font-style="normal" font-weight="normal" text-decoration="none" x="400" y="330">UNREGISTERED</text><text fill="#eeeeee" stroke="none" font-family="Arial" font-size="24px" font-style="normal" font-weight="normal" text-decoration="none" x="400" y="360">UNREGISTERED</text><text fill="#eeeeee" stroke="none" font-family="Arial" font-size="24px" font-style="normal" font-weight="normal" text-decoration="none" x="400" y="390">UNREGISTERED</text><text fill="#eeeeee" stroke="none" font-family="Arial" font-size="24px" font-style="normal" font-weight="normal" text-decoration="none" x="400" y="420">UNREGISTERED</text><text fill="#eeeeee" stroke="none" font-family="Arial" font-size="24px" font-style="normal" font-weight="normal" text-decoration="none" x="400" y="450">UNREGISTERED</text><text fill="#eeeeee" stroke="none" font-family="Arial" font-size="24px" font-style="normal" font-weight="normal" text-decoration="none" x="400" y="480">UNREGISTERED</text><text fill="#eeeeee" stroke="none" font-family="Arial" font-size="24px" font-style="normal" font-weight="normal" text-decoration="none" x="400" y="510">UNREGISTERED</text><text fill="#eeeeee" stroke="none" font-family="Arial" font-size="24px" font-style="normal" font-weight="normal" text-decoration="none" x="400" y="540">UNREGISTERED</text><text fill="#eeeeee" stroke="none" font-family="Arial" font-size="24px" font-style="normal" font-weight="normal" text-decoration="none" x="400" y="570">UNREGISTERED</text><text fill="#eeeeee" stroke="none" font-family="Arial" font-size="24px" font-style="normal" font-weight="normal" text-decoration="none" x="400" y="600">UNREGISTERED</text><text fill="#eeeeee" stroke="none" font-family="Arial" font-size="24px" font-style="normal" font-weight="normal" text-decoration="none" x="400" y="630">UNREGISTERED</text><text fill="#eeeeee" stroke="none" font-family="Arial" font-size="24px" font-style="normal" font-weight="normal" text-decoration="none" x="400" y="660">UNREGISTERED</text><text fill="#eeeeee" stroke="none" font-family="Arial" font-size="24px" font-style="normal" font-weight="normal" text-decoration="none" x="400" y="690">UNREGISTERED</text><text fill="#eeeeee" stroke="none" font-family="Arial" font-size="24px" font-style="normal" font-weight="normal" text-decoration="none" x="400" y="720">UNREGISTERED</text><text fill="#eeeeee" stroke="none" font-family="Arial" font-size="24px" font-style="normal" font-weight="normal" text-decoration="none" x="400" y="750">UNREGISTERED</text><text fill="#eeeeee" stroke="none" font-family="Arial" font-size="24px" font-style="normal" font-weight="normal" text-decoration="none" x="600" y="0">UNREGISTERED</text><text fill="#eeeeee" stroke="none" font-family="Arial" font-size="24px" font-style="normal" font-weight="normal" text-decoration="none" x="600" y="30">UNREGISTERED</text><text fill="#eeeeee" stroke="none" font-family="Arial" font-size="24px" font-style="normal" font-weight="normal" text-decoration="none" x="600" y="60">UNREGISTERED</text><text fill="#eeeeee" stroke="none" font-family="Arial" font-size="24px" font-style="normal" font-weight="normal" text-decoration="none" x="600" y="90">UNREGISTERED</text><text fill="#eeeeee" stroke="none" font-family="Arial" font-size="24px" font-style="normal" font-weight="normal" text-decoration="none" x="600" y="120">UNREGISTERED</text><text fill="#eeeeee" stroke="none" font-family="Arial" font-size="24px" font-style="normal" font-weight="normal" text-decoration="none" x="600" y="150">UNREGISTERED</text><text fill="#eeeeee" stroke="none" font-family="Arial" font-size="24px" font-style="normal" font-weight="normal" text-decoration="none" x="600" y="180">UNREGISTERED</text><text fill="#eeeeee" stroke="none" font-family="Arial" font-size="24px" font-style="normal" font-weight="normal" text-decoration="none" x="600" y="210">UNREGISTERED</text><text fill="#eeeeee" stroke="none" font-family="Arial" font-size="24px" font-style="normal" font-weight="normal" text-decoration="none" x="600" y="240">UNREGISTERED</text><text fill="#eeeeee" stroke="none" font-family="Arial" font-size="24px" font-style="normal" font-weight="normal" text-decoration="none" x="600" y="270">UNREGISTERED</text><text fill="#eeeeee" stroke="none" font-family="Arial" font-size="24px" font-style="normal" font-weight="normal" text-decoration="none" x="600" y="300">UNREGISTERED</text><text fill="#eeeeee" stroke="none" font-family="Arial" font-size="24px" font-style="normal" font-weight="normal" text-decoration="none" x="600" y="330">UNREGISTERED</text><text fill="#eeeeee" stroke="none" font-family="Arial" font-size="24px" font-style="normal" font-weight="normal" text-decoration="none" x="600" y="360">UNREGISTERED</text><text fill="#eeeeee" stroke="none" font-family="Arial" font-size="24px" font-style="normal" font-weight="normal" text-decoration="none" x="600" y="390">UNREGISTERED</text><text fill="#eeeeee" stroke="none" font-family="Arial" font-size="24px" font-style="normal" font-weight="normal" text-decoration="none" x="600" y="420">UNREGISTERED</text><text fill="#eeeeee" stroke="none" font-family="Arial" font-size="24px" font-style="normal" font-weight="normal" text-decoration="none" x="600" y="450">UNREGISTERED</text><text fill="#eeeeee" stroke="none" font-family="Arial" font-size="24px" font-style="normal" font-weight="normal" text-decoration="none" x="600" y="480">UNREGISTERED</text><text fill="#eeeeee" stroke="none" font-family="Arial" font-size="24px" font-style="normal" font-weight="normal" text-decoration="none" x="600" y="510">UNREGISTERED</text><text fill="#eeeeee" stroke="none" font-family="Arial" font-size="24px" font-style="normal" font-weight="normal" text-decoration="none" x="600" y="540">UNREGISTERED</text><text fill="#eeeeee" stroke="none" font-family="Arial" font-size="24px" font-style="normal" font-weight="normal" text-decoration="none" x="600" y="570">UNREGISTERED</text><text fill="#eeeeee" stroke="none" font-family="Arial" font-size="24px" font-style="normal" font-weight="normal" text-decoration="none" x="600" y="600">UNREGISTERED</text><text fill="#eeeeee" stroke="none" font-family="Arial" font-size="24px" font-style="normal" font-weight="normal" text-decoration="none" x="600" y="630">UNREGISTERED</text><text fill="#eeeeee" stroke="none" font-family="Arial" font-size="24px" font-style="normal" font-weight="normal" text-decoration="none" x="600" y="660">UNREGISTERED</text><text fill="#eeeeee" stroke="none" font-family="Arial" font-size="24px" font-style="normal" font-weight="normal" text-decoration="none" x="600" y="690">UNREGISTERED</text><text fill="#eeeeee" stroke="none" font-family="Arial" font-size="24px" font-style="normal" font-weight="normal" text-decoration="none" x="600" y="720">UNREGISTERED</text><text fill="#eeeeee" stroke="none" font-family="Arial" font-size="24px" font-style="normal" font-weight="normal" text-decoration="none" x="600" y="750">UNREGISTERED</text><text fill="#eeeeee" stroke="none" font-family="Arial" font-size="24px" font-style="normal" font-weight="normal" text-decoration="none" x="800" y="0">UNREGISTERED</text><text fill="#eeeeee" stroke="none" font-family="Arial" font-size="24px" font-style="normal" font-weight="normal" text-decoration="none" x="800" y="30">UNREGISTERED</text><text fill="#eeeeee" stroke="none" font-family="Arial" font-size="24px" font-style="normal" font-weight="normal" text-decoration="none" x="800" y="60">UNREGISTERED</text><text fill="#eeeeee" stroke="none" font-family="Arial" font-size="24px" font-style="normal" font-weight="normal" text-decoration="none" x="800" y="90">UNREGISTERED</text><text fill="#eeeeee" stroke="none" font-family="Arial" font-size="24px" font-style="normal" font-weight="normal" text-decoration="none" x="800" y="120">UNREGISTERED</text><text fill="#eeeeee" stroke="none" font-family="Arial" font-size="24px" font-style="normal" font-weight="normal" text-decoration="none" x="800" y="150">UNREGISTERED</text><text fill="#eeeeee" stroke="none" font-family="Arial" font-size="24px" font-style="normal" font-weight="normal" text-decoration="none" x="800" y="180">UNREGISTERED</text><text fill="#eeeeee" stroke="none" font-family="Arial" font-size="24px" font-style="normal" font-weight="normal" text-decoration="none" x="800" y="210">UNREGISTERED</text><text fill="#eeeeee" stroke="none" font-family="Arial" font-size="24px" font-style="normal" font-weight="normal" text-decoration="none" x="800" y="240">UNREGISTERED</text><text fill="#eeeeee" stroke="none" font-family="Arial" font-size="24px" font-style="normal" font-weight="normal" text-decoration="none" x="800" y="270">UNREGISTERED</text><text fill="#eeeeee" stroke="none" font-family="Arial" font-size="24px" font-style="normal" font-weight="normal" text-decoration="none" x="800" y="300">UNREGISTERED</text><text fill="#eeeeee" stroke="none" font-family="Arial" font-size="24px" font-style="normal" font-weight="normal" text-decoration="none" x="800" y="330">UNREGISTERED</text><text fill="#eeeeee" stroke="none" font-family="Arial" font-size="24px" font-style="normal" font-weight="normal" text-decoration="none" x="800" y="360">UNREGISTERED</text><text fill="#eeeeee" stroke="none" font-family="Arial" font-size="24px" font-style="normal" font-weight="normal" text-decoration="none" x="800" y="390">UNREGISTERED</text><text fill="#eeeeee" stroke="none" font-family="Arial" font-size="24px" font-style="normal" font-weight="normal" text-decoration="none" x="800" y="420">UNREGISTERED</text><text fill="#eeeeee" stroke="none" font-family="Arial" font-size="24px" font-style="normal" font-weight="normal" text-decoration="none" x="800" y="450">UNREGISTERED</text><text fill="#eeeeee" stroke="none" font-family="Arial" font-size="24px" font-style="normal" font-weight="normal" text-decoration="none" x="800" y="480">UNREGISTERED</text><text fill="#eeeeee" stroke="none" font-family="Arial" font-size="24px" font-style="normal" font-weight="normal" text-decoration="none" x="800" y="510">UNREGISTERED</text><text fill="#eeeeee" stroke="none" font-family="Arial" font-size="24px" font-style="normal" font-weight="normal" text-decoration="none" x="800" y="540">UNREGISTERED</text><text fill="#eeeeee" stroke="none" font-family="Arial" font-size="24px" font-style="normal" font-weight="normal" text-decoration="none" x="800" y="570">UNREGISTERED</text><text fill="#eeeeee" stroke="none" font-family="Arial" font-size="24px" font-style="normal" font-weight="normal" text-decoration="none" x="800" y="600">UNREGISTERED</text><text fill="#eeeeee" stroke="none" font-family="Arial" font-size="24px" font-style="normal" font-weight="normal" text-decoration="none" x="800" y="630">UNREGISTERED</text><text fill="#eeeeee" stroke="none" font-family="Arial" font-size="24px" font-style="normal" font-weight="normal" text-decoration="none" x="800" y="660">UNREGISTERED</text><text fill="#eeeeee" stroke="none" font-family="Arial" font-size="24px" font-style="normal" font-weight="normal" text-decoration="none" x="800" y="690">UNREGISTERED</text><text fill="#eeeeee" stroke="none" font-family="Arial" font-size="24px" font-style="normal" font-weight="normal" text-decoration="none" x="800" y="720">UNREGISTERED</text><text fill="#eeeeee" stroke="none" font-family="Arial" font-size="24px" font-style="normal" font-weight="normal" text-decoration="none" x="800" y="750">UNREGISTERED</text><text fill="#eeeeee" stroke="none" font-family="Arial" font-size="24px" font-style="normal" font-weight="normal" text-decoration="none" x="1000" y="0">UNREGISTERED</text><text fill="#eeeeee" stroke="none" font-family="Arial" font-size="24px" font-style="normal" font-weight="normal" text-decoration="none" x="1000" y="30">UNREGISTERED</text><text fill="#eeeeee" stroke="none" font-family="Arial" font-size="24px" font-style="normal" font-weight="normal" text-decoration="none" x="1000" y="60">UNREGISTERED</text><text fill="#eeeeee" stroke="none" font-family="Arial" font-size="24px" font-style="normal" font-weight="normal" text-decoration="none" x="1000" y="90">UNREGISTERED</text><text fill="#eeeeee" stroke="none" font-family="Arial" font-size="24px" font-style="normal" font-weight="normal" text-decoration="none" x="1000" y="120">UNREGISTERED</text><text fill="#eeeeee" stroke="none" font-family="Arial" font-size="24px" font-style="normal" font-weight="normal" text-decoration="none" x="1000" y="150">UNREGISTERED</text><text fill="#eeeeee" stroke="none" font-family="Arial" font-size="24px" font-style="normal" font-weight="normal" text-decoration="none" x="1000" y="180">UNREGISTERED</text><text fill="#eeeeee" stroke="none" font-family="Arial" font-size="24px" font-style="normal" font-weight="normal" text-decoration="none" x="1000" y="210">UNREGISTERED</text><text fill="#eeeeee" stroke="none" font-family="Arial" font-size="24px" font-style="normal" font-weight="normal" text-decoration="none" x="1000" y="240">UNREGISTERED</text><text fill="#eeeeee" stroke="none" font-family="Arial" font-size="24px" font-style="normal" font-weight="normal" text-decoration="none" x="1000" y="270">UNREGISTERED</text><text fill="#eeeeee" stroke="none" font-family="Arial" font-size="24px" font-style="normal" font-weight="normal" text-decoration="none" x="1000" y="300">UNREGISTERED</text><text fill="#eeeeee" stroke="none" font-family="Arial" font-size="24px" font-style="normal" font-weight="normal" text-decoration="none" x="1000" y="330">UNREGISTERED</text><text fill="#eeeeee" stroke="none" font-family="Arial" font-size="24px" font-style="normal" font-weight="normal" text-decoration="none" x="1000" y="360">UNREGISTERED</text><text fill="#eeeeee" stroke="none" font-family="Arial" font-size="24px" font-style="normal" font-weight="normal" text-decoration="none" x="1000" y="390">UNREGISTERED</text><text fill="#eeeeee" stroke="none" font-family="Arial" font-size="24px" font-style="normal" font-weight="normal" text-decoration="none" x="1000" y="420">UNREGISTERED</text><text fill="#eeeeee" stroke="none" font-family="Arial" font-size="24px" font-style="normal" font-weight="normal" text-decoration="none" x="1000" y="450">UNREGISTERED</text><text fill="#eeeeee" stroke="none" font-family="Arial" font-size="24px" font-style="normal" font-weight="normal" text-decoration="none" x="1000" y="480">UNREGISTERED</text><text fill="#eeeeee" stroke="none" font-family="Arial" font-size="24px" font-style="normal" font-weight="normal" text-decoration="none" x="1000" y="510">UNREGISTERED</text><text fill="#eeeeee" stroke="none" font-family="Arial" font-size="24px" font-style="normal" font-weight="normal" text-decoration="none" x="1000" y="540">UNREGISTERED</text><text fill="#eeeeee" stroke="none" font-family="Arial" font-size="24px" font-style="normal" font-weight="normal" text-decoration="none" x="1000" y="570">UNREGISTERED</text><text fill="#eeeeee" stroke="none" font-family="Arial" font-size="24px" font-style="normal" font-weight="normal" text-decoration="none" x="1000" y="600">UNREGISTERED</text><text fill="#eeeeee" stroke="none" font-family="Arial" font-size="24px" font-style="normal" font-weight="normal" text-decoration="none" x="1000" y="630">UNREGISTERED</text><text fill="#eeeeee" stroke="none" font-family="Arial" font-size="24px" font-style="normal" font-weight="normal" text-decoration="none" x="1000" y="660">UNREGISTERED</text><text fill="#eeeeee" stroke="none" font-family="Arial" font-size="24px" font-style="normal" font-weight="normal" text-decoration="none" x="1000" y="690">UNREGISTERED</text><text fill="#eeeeee" stroke="none" font-family="Arial" font-size="24px" font-style="normal" font-weight="normal" text-decoration="none" x="1000" y="720">UNREGISTERED</text><text fill="#eeeeee" stroke="none" font-family="Arial" font-size="24px" font-style="normal" font-weight="normal" text-decoration="none" x="1000" y="750">UNREGISTERED</text><g transform="translate(-38,-118) scale(1,1)"><rect fill="#C0C0C0" stroke="none" x="287" y="135" width="792" height="744" opacity="0.2"/></g><g transform="translate(-38,-118) scale(1,1)"><rect fill="#ffffff" stroke="none" x="280" y="128" width="792" height="744"/></g><g transform="translate(-38,-118) scale(1,1)"><path fill="none" stroke="#000000" d="M 280 128 L 1072 128 L 1072 872 L 280 872 L 280 128 Z Z" stroke-miterlimit="10"/></g><g transform="translate(-38,-118) scale(1,1)"><g><path fill="none" stroke="none"/><text fill="#000000" stroke="none" font-family="Arial" font-size="13px" font-style="normal" font-weight="bold" text-decoration="none" x="534.399658203125" y="146">Salon De Belleza Cabello Bello JJ Página web</text></g></g><g transform="translate(-38,-118) scale(1,1)"><path fill="#ffffff" stroke="none" d="M 112.27064382102273 458.33 C 112.27064382102273 439.92234761599997 126.59069238887727 425 144.25537109375 425 C 161.92004979862273 425 176.2400983664773 439.92234761599997 176.2400983664773 458.33 C 176.2400983664773 476.737652384 161.92004979862273 491.65999999999997 144.25537109375 491.65999999999997 C 126.59069238887727 491.65999999999997 112.27064382102273 476.737652384 112.27064382102273 458.33 Z"/></g><g transform="translate(-38,-118) scale(1,1)"><path fill="none" stroke="#000000" d="M 112.27064382102273 458.33 C 112.27064382102273 439.92234761599997 126.59069238887727 425 144.25537109375 425 C 161.92004979862273 425 176.2400983664773 439.92234761599997 176.2400983664773 458.33 C 176.2400983664773 476.737652384 161.92004979862273 491.65999999999997 144.25537109375 491.65999999999997 C 126.59069238887727 491.65999999999997 112.27064382102273 476.737652384 112.27064382102273 458.33 Z" stroke-miterlimit="10"/></g><g transform="translate(-38,-118) scale(1,1)"><path fill="none" stroke="#000000" d="M 144.25537109375 491.65999999999997 L 144.25537109375 555.34" stroke-miterlimit="10"/></g><g transform="translate(-38,-118) scale(1,1)"><path fill="none" stroke="#000000" d="M 110.38918927556817 515.54 L 178.12155291193184 515.54" stroke-miterlimit="10"/></g><g transform="translate(-38,-118) scale(1,1)"><path fill="none" stroke="#000000" d="M 144.25537109375 555.34 L 97.21900745738635 622" stroke-miterlimit="10"/></g><g transform="translate(-38,-118) scale(1,1)"><path fill="none" stroke="#000000" d="M 144.25537109375 555.34 L 191.29173473011366 622" stroke-miterlimit="10"/></g><g transform="translate(-38,-118) scale(1,1)"><g><path fill="none" stroke="none"/><text fill="#000000" stroke="none" font-family="Arial" font-size="13px" font-style="normal" font-weight="bold" text-decoration="none" x="52.5" y="641">Empleado - Servicio al cliente</text></g></g><g transform="translate(-38,-118) scale(1,1)"><path fill="#C0C0C0" stroke="none" d="M 415 294.5 C 415 272.6847504 472.083688 255 542.5 255 C 612.9163120000001 255 670 272.6847504 670 294.5 C 670 316.3152496 612.9163120000001 334 542.5 334 C 472.083688 334 415 316.3152496 415 294.5 Z" opacity="0.2"/></g><g transform="translate(-38,-118) scale(1,1)"><path fill="#ffffff" stroke="none" d="M 408 287.5 C 408 265.6847504 465.083688 248 535.5 248 C 605.9163120000001 248 663 265.6847504 663 287.5 C 663 309.3152496 605.9163120000001 327 535.5 327 C 465.083688 327 408 309.3152496 408 287.5 Z"/></g><g transform="translate(-38,-118) scale(1,1)"><path fill="none" stroke="#000000" d="M 408 287.5 C 408 265.6847504 465.083688 248 535.5 248 C 605.9163120000001 248 663 265.6847504 663 287.5 C 663 309.3152496 605.9163120000001 327 535.5 327 C 465.083688 327 408 309.3152496 408 287.5 Z" stroke-miterlimit="10"/></g><g transform="translate(-38,-118) scale(1,1)"><g><path fill="none" stroke="none"/><text fill="#000000" stroke="none" font-family="Arial" font-size="13px" font-style="normal" font-weight="bold" text-decoration="none" x="487.832275390625" y="293">CU001 - Loguin</text></g></g><g transform="translate(-38,-118) scale(1,1)"><path fill="#C0C0C0" stroke="none" d="M 399 494.5 C 399 472.6847504 457.8745488 455 530.5 455 C 603.1254512 455 662 472.6847504 662 494.5 C 662 516.3152496 603.1254512 534 530.5 534 C 457.8745488 534 399 516.3152496 399 494.5 Z" opacity="0.2"/></g><g transform="translate(-38,-118) scale(1,1)"><path fill="#ffffff" stroke="none" d="M 392 487.5 C 392 465.6847504 450.8745488 448 523.5 448 C 596.1254512 448 655 465.6847504 655 487.5 C 655 509.3152496 596.1254512 527 523.5 527 C 450.8745488 527 392 509.3152496 392 487.5 Z"/></g><g transform="translate(-38,-118) scale(1,1)"><path fill="none" stroke="#000000" d="M 392 487.5 C 392 465.6847504 450.8745488 448 523.5 448 C 596.1254512 448 655 465.6847504 655 487.5 C 655 509.3152496 596.1254512 527 523.5 527 C 450.8745488 527 392 509.3152496 392 487.5 Z" stroke-miterlimit="10"/></g><g transform="translate(-38,-118) scale(1,1)"><g><path fill="none" stroke="none"/><text fill="#000000" stroke="none" font-family="Arial" font-size="13px" font-style="normal" font-weight="bold" text-decoration="none" x="441.142333984375" y="493">CU002 - Gestionar Usuario</text></g></g><g transform="translate(-38,-118) scale(1,1)"><path fill="#C0C0C0" stroke="none" d="M 415 646.5 C 415 624.6847504 473.8745488 607 546.5 607 C 619.1254512 607 678 624.6847504 678 646.5 C 678 668.3152496 619.1254512 686 546.5 686 C 473.8745488 686 415 668.3152496 415 646.5 Z" opacity="0.2"/></g><g transform="translate(-38,-118) scale(1,1)"><path fill="#ffffff" stroke="none" d="M 408 639.5 C 408 617.6847504 466.8745488 600 539.5 600 C 612.1254512 600 671 617.6847504 671 639.5 C 671 661.3152496 612.1254512 679 539.5 679 C 466.8745488 679 408 661.3152496 408 639.5 Z"/></g><g transform="translate(-38,-118) scale(1,1)"><path fill="none" stroke="#000000" d="M 408 639.5 C 408 617.6847504 466.8745488 600 539.5 600 C 612.1254512 600 671 617.6847504 671 639.5 C 671 661.3152496 612.1254512 679 539.5 679 C 466.8745488 679 408 661.3152496 408 639.5 Z" stroke-miterlimit="10"/></g><g transform="translate(-38,-118) scale(1,1)"><g><path fill="none" stroke="none"/><text fill="#000000" stroke="none" font-family="Arial" font-size="13px" font-style="normal" font-weight="bold" text-decoration="none" x="465.4482421875" y="645">CU003 - Gestionar Citas</text></g></g><g transform="translate(-38,-118) scale(1,1)"><path fill="#C0C0C0" stroke="none" d="M 743 410.5 C 743 390.8938896 798.2928272 375 866.5 375 C 934.7071728 375 990 390.8938896 990 410.5 C 990 430.1061104 934.7071728 446 866.5 446 C 798.2928272 446 743 430.1061104 743 410.5 Z" opacity="0.2"/></g><g transform="translate(-38,-118) scale(1,1)"><path fill="#ffffff" stroke="none" d="M 736 403.5 C 736 383.8938896 791.2928272 368 859.5 368 C 927.7071728 368 983 383.8938896 983 403.5 C 983 423.1061104 927.7071728 439 859.5 439 C 791.2928272 439 736 423.1061104 736 403.5 Z"/></g><g transform="translate(-38,-118) scale(1,1)"><path fill="none" stroke="#000000" d="M 736 403.5 C 736 383.8938896 791.2928272 368 859.5 368 C 927.7071728 368 983 383.8938896 983 403.5 C 983 423.1061104 927.7071728 439 859.5 439 C 791.2928272 439 736 423.1061104 736 403.5 Z" stroke-miterlimit="10"/></g><g transform="translate(-38,-118) scale(1,1)"><g><path fill="none" stroke="none"/><text fill="#000000" stroke="none" font-family="Arial" font-size="13px" font-style="normal" font-weight="bold" text-decoration="none" x="831.31640625" y="409">Ver Perfil</text></g></g><g transform="translate(-38,-118) scale(1,1)"><path fill="#C0C0C0" stroke="none" d="M 751 534.5 C 751 517.1030288 808.0836879999999 503 878.5 503 C 948.9163120000001 503 1006 517.1030288 1006 534.5 C 1006 551.8969712 948.9163120000001 566 878.5 566 C 808.0836879999999 566 751 551.8969712 751 534.5 Z" opacity="0.2"/></g><g transform="translate(-38,-118) scale(1,1)"><path fill="#ffffff" stroke="none" d="M 744 527.5 C 744 510.1030288 801.0836879999999 496 871.5 496 C 941.9163120000001 496 999 510.1030288 999 527.5 C 999 544.8969712 941.9163120000001 559 871.5 559 C 801.0836879999999 559 744 544.8969712 744 527.5 Z"/></g><g transform="translate(-38,-118) scale(1,1)"><path fill="none" stroke="#000000" d="M 744 527.5 C 744 510.1030288 801.0836879999999 496 871.5 496 C 941.9163120000001 496 999 510.1030288 999 527.5 C 999 544.8969712 941.9163120000001 559 871.5 559 C 801.0836879999999 559 744 544.8969712 744 527.5 Z" stroke-miterlimit="10"/></g><g transform="translate(-38,-118) scale(1,1)"><g><path fill="none" stroke="none"/><text fill="#000000" stroke="none" font-family="Arial" font-size="13px" font-style="normal" font-weight="bold" text-decoration="none" x="822.372314453125" y="533">Actualizar Perfil</text></g></g><g transform="translate(-38,-118) scale(1,1)"><path fill="none" stroke="#000000" d="M 743 512 L 656 502" stroke-miterlimit="10" stroke-dasharray="3"/></g><g transform="translate(-38,-118) scale(1,1)"><path fill="none" stroke="#000000" d="M 666.5768869595928 498.9785000009934 L 656 502 L 665.6155116316243 507.3424653543189" stroke-miterlimit="10"/></g><g transform="translate(-38,-118) scale(1,1)"><g><path fill="none" stroke="none"/><text fill="#000000" stroke="none" font-family="Arial" font-size="13px" font-style="normal" font-weight="normal" text-decoration="none" x="668.5" y="541">«extend»</text></g></g><g transform="translate(-38,-118) scale(1,1)"><path fill="none" stroke="#000000" d="M 735 434 L 656 454" stroke-miterlimit="10" stroke-dasharray="3"/></g><g transform="translate(-38,-118) scale(1,1)"><path fill="none" stroke="#000000" d="M 664.8187557093096 447.4250819214594 L 656 454 L 666.8849711227624 455.5866328045983" stroke-miterlimit="10"/></g><g transform="translate(-38,-118) scale(1,1)"><g><path fill="none" stroke="none"/><text fill="#000000" stroke="none" font-family="Arial" font-size="13px" font-style="normal" font-weight="normal" text-decoration="none" x="674.5" y="478">«include»</text></g></g><g transform="translate(-38,-118) scale(1,1)"><path fill="#C0C0C0" stroke="none" d="M 751 630.5 C 751 613.1030288 806.2928272 599 874.5 599 C 942.7071728 599 998 613.1030288 998 630.5 C 998 647.8969712 942.7071728 662 874.5 662 C 806.2928272 662 751 647.8969712 751 630.5 Z" opacity="0.2"/></g><g transform="translate(-38,-118) scale(1,1)"><path fill="#ffffff" stroke="none" d="M 744 623.5 C 744 606.1030288 799.2928272 592 867.5 592 C 935.7071728 592 991 606.1030288 991 623.5 C 991 640.8969712 935.7071728 655 867.5 655 C 799.2928272 655 744 640.8969712 744 623.5 Z"/></g><g transform="translate(-38,-118) scale(1,1)"><path fill="none" stroke="#000000" d="M 744 623.5 C 744 606.1030288 799.2928272 592 867.5 592 C 935.7071728 592 991 606.1030288 991 623.5 C 991 640.8969712 935.7071728 655 867.5 655 C 799.2928272 655 744 640.8969712 744 623.5 Z" stroke-miterlimit="10"/></g><g transform="translate(-38,-118) scale(1,1)"><g><path fill="none" stroke="none"/><text fill="#000000" stroke="none" font-family="Arial" font-size="13px" font-style="normal" font-weight="bold" text-decoration="none" x="839.67822265625" y="629">Ver Citas</text></g></g><g transform="translate(-38,-118) scale(1,1)"><path fill="none" stroke="#000000" d="M 743 629 L 672 633" stroke-miterlimit="10" stroke-dasharray="3"/></g><g transform="translate(-38,-118) scale(1,1)"><path fill="none" stroke="#000000" d="M 681.9098046587152 628.2255082337377 L 672 633 L 682.383365579055 636.6312145697682" stroke-miterlimit="10"/></g><g transform="translate(-38,-118) scale(1,1)"><g><path fill="none" stroke="none"/><text fill="#000000" stroke="none" font-family="Arial" font-size="13px" font-style="normal" font-weight="normal" text-decoration="none" x="680.5" y="665">«include»</text></g></g><g transform="translate(-38,-118) scale(1,1)"><path fill="#C0C0C0" stroke="none" d="M 735 735 C 735 717.3268864 796.1131248 703 871.5 703 C 946.8868752 703 1008 717.3268864 1008 735 C 1008 752.6731136 946.8868752 767 871.5 767 C 796.1131248 767 735 752.6731136 735 735 Z" opacity="0.2"/></g><g transform="translate(-38,-118) scale(1,1)"><path fill="#ffffff" stroke="none" d="M 728 728 C 728 710.3268864 789.1131248 696 864.5 696 C 939.8868752 696 1001 710.3268864 1001 728 C 1001 745.6731136 939.8868752 760 864.5 760 C 789.1131248 760 728 745.6731136 728 728 Z"/></g><g transform="translate(-38,-118) scale(1,1)"><path fill="none" stroke="#000000" d="M 728 728 C 728 710.3268864 789.1131248 696 864.5 696 C 939.8868752 696 1001 710.3268864 1001 728 C 1001 745.6731136 939.8868752 760 864.5 760 C 789.1131248 760 728 745.6731136 728 728 Z" stroke-miterlimit="10"/></g><g transform="translate(-38,-118) scale(1,1)"><g><path fill="none" stroke="none"/><text fill="#000000" stroke="none" font-family="Arial" font-size="13px" font-style="normal" font-weight="bold" text-decoration="none" x="772.3955078125" y="733.5">Notificar conclución de la cita</text></g></g><g transform="translate(-38,-118) scale(1,1)"><path fill="none" stroke="#000000" d="M 743 695 L 672 675" stroke-miterlimit="10" stroke-dasharray="3"/></g><g transform="translate(-38,-118) scale(1,1)"><path fill="none" stroke="#000000" d="M 682.9233464156237 673.70365780587 L 672 675 L 680.6406246799448 681.8073199675297" stroke-miterlimit="10"/></g><g transform="translate(-38,-118) scale(1,1)"><g><path fill="none" stroke="none"/><text fill="#000000" stroke="none" font-family="Arial" font-size="13px" font-style="normal" font-weight="normal" text-decoration="none" x="670.5" y="718">«include»</text></g></g><g transform="translate(-38,-118) scale(1,1)"><path fill="none" stroke="#000000" d="M 242 474 L 471 328" stroke-miterlimit="10"/></g><g transform="translate(-38,-118) scale(1,1)"><path fill="none" stroke="#000000" d="M 464.69376310873344 337.01284507085467 L 471 328 L 460.16777326303156 329.9138609978017" stroke-miterlimit="10"/></g><g transform="translate(-38,-118) scale(1,1)"><path fill="none" stroke="#000000" d="M 242 523 L 391 504" stroke-miterlimit="10"/></g><g transform="translate(-38,-118) scale(1,1)"><path fill="none" stroke="#000000" d="M 381.45142864951254 509.461207299183 L 391 504 L 380.38648373270894 501.1097971621445" stroke-miterlimit="10"/></g><g transform="translate(-38,-118) scale(1,1)"><path fill="none" stroke="#000000" d="M 242 561 L 407 605" stroke-miterlimit="10"/></g><g transform="translate(-38,-118) scale(1,1)"><path fill="none" stroke="#000000" d="M 396.0958329701606 606.4488413941363 L 407 605 L 398.2651039753523 598.3140751246673" stroke-miterlimit="10"/></g></g></svg>