<svg version="1.1" xmlns="http://www.w3.org/2000/svg" xmlns:xlink="http://www.w3.org/1999/xlink" width="1076" height="756"><defs/><g><text fill="#eeeeee" stroke="none" font-family="Arial" font-size="24px" font-style="normal" font-weight="normal" text-decoration="none" x="0" y="0">UNREGISTERED</text><text fill="#eeeeee" stroke="none" font-family="Arial" font-size="24px" font-style="normal" font-weight="normal" text-decoration="none" x="0" y="30">UNREGISTERED</text><text fill="#eeeeee" stroke="none" font-family="Arial" font-size="24px" font-style="normal" font-weight="normal" text-decoration="none" x="0" y="60">UNREGISTERED</text><text fill="#eeeeee" stroke="none" font-family="Arial" font-size="24px" font-style="normal" font-weight="normal" text-decoration="none" x="0" y="90">UNREGISTERED</text><text fill="#eeeeee" stroke="none" font-family="Arial" font-size="24px" font-style="normal" font-weight="normal" text-decoration="none" x="0" y="120">UNREGISTERED</text><text fill="#eeeeee" stroke="none" font-family="Arial" font-size="24px" font-style="normal" font-weight="normal" text-decoration="none" x="0" y="150">UNREGISTERED</text><text fill="#eeeeee" stroke="none" font-family="Arial" font-size="24px" font-style="normal" font-weight="normal" text-decoration="none" x="0" y="180">UNREGISTERED</text><text fill="#eeeeee" stroke="none" font-family="Arial" font-size="24px" font-style="normal" font-weight="normal" text-decoration="none" x="0" y="210">UNREGISTERED</text><text fill="#eeeeee" stroke="none" font-family="Arial" font-size="24px" font-style="normal" font-weight="normal" text-decoration="none" x="0" y="240">UNREGISTERED</text><text fill="#eeeeee" stroke="none" font-family="Arial" font-size="24px" font-style="normal" font-weight="normal" text-decoration="none" x="0" y="270">UNREGISTERED</text><text fill="#eeeeee" stroke="none" font-family="Arial" font-size="24px" font-style="normal" font-weight="normal" text-decoration="none" x="0" y="300">UNREGISTERED</text><text fill="#eeeeee" stroke="none" font-family="Arial" font-size="24px" font-style="normal" font-weight="normal" text-decoration="none" x="0" y="330">UNREGISTERED</text><text fill="#eeeeee" stroke="none" font-family="Arial" font-size="24px" font-style="normal" font-weight="normal" text-decoration="none" x="0" y="360">UNREGISTERED</text><text fill="#eeeeee" stroke="none" font-family="Arial" font-size="24px" font-style="normal" font-weight="normal" text-decoration="none" x="0" y="390">UNREGISTERED</text><text fill="#eeeeee" stroke="none" font-family="Arial" font-size="24px" font-style="normal" font-weight="normal" text-decoration="none" x="0" y="420">UNREGISTERED</text><text fill="#eeeeee" stroke="none" font-family="Arial" font-size="24px" font-style="normal" font-weight="normal" text-decoration="none" x="0" y="450">UNREGISTERED</text><text fill="#eeeeee" stroke="none" font-family="Arial" font-size="24px" font-style="normal" font-weight="normal" text-decoration="none" x="0" y="480">UNREGISTERED</text><text fill="#eeeeee" stroke="none" font-family="Arial" font-size="24px" font-style="normal" font-weight="normal" text-decoration="none" x="0" y="510">UNREGISTERED</text><text fill="#eeeeee" stroke="none" font-family="Arial" font-size="24px" font-style="normal" font-weight="normal" text-decoration="none" x="0" y="540">UNREGISTERED</text><text fill="#eeeeee" stroke="none" font-family="Arial" font-size="24px" font-style="normal" font-weight="normal" text-decoration="none" x="0" y="570">UNREGISTERED</text><text fill="#eeeeee" stroke="none" font-family="Arial" font-size="24px" font-style="normal" font-weight="normal" text-decoration="none" x="0" y="600">UNREGISTERED</text><text fill="#eeeeee" stroke="none" font-family="Arial" font-size="24px" font-style="normal" font-weight="normal" text-decoration="none" x="0" y="630">UNREGISTERED</text><text fill="#eeeeee" stroke="none" font-family="Arial" font-size="24px" font-style="normal" font-weight="normal" text-decoration="none" x="0" y="660">UNREGISTERED</text><text fill="#eeeeee" stroke="none" font-family="Arial" font-size="24px" font-style="normal" font-weight="normal" text-decoration="none" x="0" y="690">UNREGISTERED</text><text fill="#eeeeee" stroke="none" font-family="Arial" font-size="24px" font-style="normal" font-weight="normal" text-decoration="none" x="0" y="720">UNREGISTERED</text><text fill="#eeeeee" stroke="none" font-family="Arial" font-size="24px" font-style="normal" font-weight="normal" text-decoration="none" x="0" y="750">UNREGISTERED</text><text fill="#eeeeee" stroke="none" font-family="Arial" font-size="24px" font-style="normal" font-weight="normal" text-decoration="none" x="200" y="0">UNREGISTERED</text><text fill="#eeeeee" stroke="none" font-family="Arial" font-size="24px" font-style="normal" font-weight="normal" text-decoration="none" x="200" y="30">UNREGISTERED</text><text fill="#eeeeee" stroke="none" font-family="Arial" font-size="24px" font-style="normal" font-weight="normal" text-decoration="none" x="200" y="60">UNREGISTERED</text><text fill="#eeeeee" stroke="none" font-family="Arial" font-size="24px" font-style="normal" font-weight="normal" text-decoration="none" x="200" y="90">UNREGISTERED</text><text fill="#eeeeee" stroke="none" font-family="Arial" font-size="24px" font-style="normal" font-weight="normal" text-decoration="none" x="200" y="120">UNREGISTERED</text><text fill="#eeeeee" stroke="none" font-family="Arial" font-size="24px" font-style="normal" font-weight="normal" text-decoration="none" x="200" y="150">UNREGISTERED</text><text fill="#eeeeee" stroke="none" font-family="Arial" font-size="24px" font-style="normal" font-weight="normal" text-decoration="none" x="200" y="180">UNREGISTERED</text><text fill="#eeeeee" stroke="none" font-family="Arial" font-size="24px" font-style="normal" font-weight="normal" text-decoration="none" x="200" y="210">UNREGISTERED</text><text fill="#eeeeee" stroke="none" font-family="Arial" font-size="24px" font-style="normal" font-weight="normal" text-decoration="none" x="200" y="240">UNREGISTERED</text><text fill="#eeeeee" stroke="none" font-family="Arial" font-size="24px" font-style="normal" font-weight="normal" text-decoration="none" x="200" y="270">UNREGISTERED</text><text fill="#eeeeee" stroke="none" font-family="Arial" font-size="24px" font-style="normal" font-weight="normal" text-decoration="none" x="200" y="300">UNREGISTERED</text><text fill="#eeeeee" stroke="none" font-family="Arial" font-size="24px" font-style="normal" font-weight="normal" text-decoration="none" x="200" y="330">UNREGISTERED</text><text fill="#eeeeee" stroke="none" font-family="Arial" font-size="24px" font-style="normal" font-weight="normal" text-decoration="none" x="200" y="360">UNREGISTERED</text><text fill="#eeeeee" stroke="none" font-family="Arial" font-size="24px" font-style="normal" font-weight="normal" text-decoration="none" x="200" y="390">UNREGISTERED</text><text fill="#eeeeee" stroke="none" font-family="Arial" font-size="24px" font-style="normal" font-weight="normal" text-decoration="none" x="200" y="420">UNREGISTERED</text><text fill="#eeeeee" stroke="none" font-family="Arial" font-size="24px" font-style="normal" font-weight="normal" text-decoration="none" x="200" y="450">UNREGISTERED</text><text fill="#eeeeee" stroke="none" font-family="Arial" font-size="24px" font-style="normal" font-weight="normal" text-decoration="none" x="200" y="480">UNREGISTERED</text><text fill="#eeeeee" stroke="none" font-family="Arial" font-size="24px" font-style="normal" font-weight="normal" text-decoration="none" x="200" y="510">UNREGISTERED</text><text fill="#eeeeee" stroke="none" font-family="Arial" font-size="24px" font-style="normal" font-weight="normal" text-decoration="none" x="200" y="540">UNREGISTERED</text><text fill="#eeeeee" stroke="none" font-family="Arial" font-size="24px" font-style="normal" font-weight="normal" text-decoration="none" x="200" y="570">UNREGISTERED</text><text fill="#eeeeee" stroke="none" font-family="Arial" font-size="24px" font-style="normal" font-weight="normal" text-decoration="none" x="200" y="600">UNREGISTERED</text><text fill="#eeeeee" stroke="none" font-family="Arial" font-size="24px" font-style="normal" font-weight="normal" text-decoration="none" x="200" y="630">UNREGISTERED</text><text fill="#eeeeee" stroke="none" font-family="Arial" font-size="24px" font-style="normal" font-weight="normal" text-decoration="none" x="200" y="660">UNREGISTERED</text><text fill="#eeeeee" stroke="none" font-family="Arial" font-size="24px" font-style="normal" font-weight="normal" text-decoration="none" x="200" y="690">UNREGISTERED</text><text fill="#eeeeee" stroke="none" font-family="Arial" font-size="24px" font-style="normal" font-weight="normal" text-decoration="none" x="200" y="720">UNREGISTERED</text><text fill="#eeeeee" stroke="none" font-family="Arial" font-size="24px" font-style="normal" font-weight="normal" text-decoration="none" x="200" y="750">UNREGISTERED</text><text fill="#eeeeee" stroke="none" font-family="Arial" font-size="24px" font-style="normal" font-weight="normal" text-decoration="none" x="400" y="0">UNREGISTERED</text><text fill="#eeeeee" stroke="none" font-family="Arial" font-size="24px" font-style="normal" font-weight="normal" text-decoration="none" x="400" y="30">UNREGISTERED</text><text fill="#eeeeee" stroke="none" font-family="Arial" font-size="24px" font-style="normal" font-weight="normal" text-decoration="none" x="400" y="60">UNREGISTERED</text><text fill="#eeeeee" stroke="none" font-family="Arial" font-size="24px" font-style="normal" font-weight="normal" text-decoration="none" x="400" y="90">UNREGISTERED</text><text fill="#eeeeee" stroke="none" font-family="Arial" font-size="24px" font-style="normal" font-weight="normal" text-decoration="none" x="400" y="120">UNREGISTERED</text><text fill="#eeeeee" stroke="none" font-family="Arial" font-size="24px" font-style="normal" font-weight="normal" text-decoration="none" x="400" y="150">UNREGISTERED</text><text fill="#eeeeee" stroke="none" font-family="Arial" font-size="24px" font-style="normal" font-weight="normal" text-decoration="none" x="400" y="180">UNREGISTERED</text><text fill="#eeeeee" stroke="none" font-family="Arial" font-size="24px" font-style="normal" font-weight="normal" text-decoration="none" x="400" y="210">UNREGISTERED</text><text fill="#eeeeee" stroke="none" font-family="Arial" font-size="24px" font-style="normal" font-weight="normal" text-decoration="none" x="400" y="240">UNREGISTERED</text><text fill="#eeeeee" stroke="none" font-family="Arial" font-size="24px" font-style="normal" font-weight="normal" text-decoration="none" x="400" y="270">UNREGISTERED</text><text fill="#eeeeee" stroke="none" font-family="Arial" font-size="24px" font-style="normal" font-weight="normal" text-decoration="none" x="400" y="300">UNREGISTERED</text><text fill="#eeeeee" stroke="none" font-family="Arial" font-size="24px" font-style="normal" font-weight="normal" text-decoration="none" x="400" y="330">UNREGISTERED</text><text fill="#eeeeee" stroke="none" font-family="Arial" font-size="24px" font-style="normal" font-weight="normal" text-decoration="none" x="400" y="360">UNREGISTERED</text><text fill="#eeeeee" stroke="none" font-family="Arial" font-size="24px" font-style="normal" font-weight="normal" text-decoration="none" x="400" y="390">UNREGISTERED</text><text fill="#eeeeee" stroke="none" font-family="Arial" font-size="24px" font-style="normal" font-weight="normal" text-decoration="none" x="400" y="420">UNREGISTERED</text><text fill="#eeeeee" stroke="none" font-family="Arial" font-size="24px" font-style="normal" font-weight="normal" text-decoration="none" x="400" y="450">UNREGISTERED</text><text fill="#eeeeee" stroke="none" font-family="Arial" font-size="24px" font-style="normal" font-weight="normal" text-decoration="none" x="400" y="480">UNREGISTERED</text><text fill="#eeeeee" stroke="none" font-family="Arial" font-size="24px" font-style="normal" font-weight="normal" text-decoration="none" x="400" y="510">UNREGISTERED</text><text fill="#eeeeee" stroke="none" font-family="Arial" font-size="24px" font-style="normal" font-weight="normal" text-decoration="none" x="400" y="540">UNREGISTERED</text><text fill="#eeeeee" stroke="none" font-family="Arial" font-size="24px" font-style="normal" font-weight="normal" text-decoration="none" x="400" y="570">UNREGISTERED</text><text fill="#eeeeee" stroke="none" font-family="Arial" font-size="24px" font-style="normal" font-weight="normal" text-decoration="none" x="400" y="600">UNREGISTERED</text><text fill="#eeeeee" stroke="none" font-family="Arial" font-size="24px" font-style="normal" font-weight="normal" text-decoration="none" x="400" y="630">UNREGISTERED</text><text fill="#eeeeee" stroke="none" font-family="Arial" font-size="24px" font-style="normal" font-weight="normal" text-decoration="none" x="400" y="660">UNREGISTERED</text><text fill="#eeeeee" stroke="none" font-family="Arial" font-size="24px" font-style="normal" font-weight="normal" text-decoration="none" x="400" y="690">UNREGISTERED</text><text fill="#eeeeee" stroke="none" font-family="Arial" font-size="24px" font-style="normal" font-weight="normal" text-decoration="none" x="400" y="720">UNREGISTERED</text><text fill="#eeeeee" stroke="none" font-family="Arial" font-size="24px" font-style="normal" font-weight="normal" text-decoration="none" x="400" y="750">UNREGISTERED</text><text fill="#eeeeee" stroke="none" font-family="Arial" font-size="24px" font-style="normal" font-weight="normal" text-decoration="none" x="600" y="0">UNREGISTERED</text><text fill="#eeeeee" stroke="none" font-family="Arial" font-size="24px" font-style="normal" font-weight="normal" text-decoration="none" x="600" y="30">UNREGISTERED</text><text fill="#eeeeee" stroke="none" font-family="Arial" font-size="24px" font-style="normal" font-weight="normal" text-decoration="none" x="600" y="60">UNREGISTERED</text><text fill="#eeeeee" stroke="none" font-family="Arial" font-size="24px" font-style="normal" font-weight="normal" text-decoration="none" x="600" y="90">UNREGISTERED</text><text fill="#eeeeee" stroke="none" font-family="Arial" font-size="24px" font-style="normal" font-weight="normal" text-decoration="none" x="600" y="120">UNREGISTERED</text><text fill="#eeeeee" stroke="none" font-family="Arial" font-size="24px" font-style="normal" font-weight="normal" text-decoration="none" x="600" y="150">UNREGISTERED</text><text fill="#eeeeee" stroke="none" font-family="Arial" font-size="24px" font-style="normal" font-weight="normal" text-decoration="none" x="600" y="180">UNREGISTERED</text><text fill="#eeeeee" stroke="none" font-family="Arial" font-size="24px" font-style="normal" font-weight="normal" text-decoration="none" x="600" y="210">UNREGISTERED</text><text fill="#eeeeee" stroke="none" font-family="Arial" font-size="24px" font-style="normal" font-weight="normal" text-decoration="none" x="600" y="240">UNREGISTERED</text><text fill="#eeeeee" stroke="none" font-family="Arial" font-size="24px" font-style="normal" font-weight="normal" text-decoration="none" x="600" y="270">UNREGISTERED</text><text fill="#eeeeee" stroke="none" font-family="Arial" font-size="24px" font-style="normal" font-weight="normal" text-decoration="none" x="600" y="300">UNREGISTERED</text><text fill="#eeeeee" stroke="none" font-family="Arial" font-size="24px" font-style="normal" font-weight="normal" text-decoration="none" x="600" y="330">UNREGISTERED</text><text fill="#eeeeee" stroke="none" font-family="Arial" font-size="24px" font-style="normal" font-weight="normal" text-decoration="none" x="600" y="360">UNREGISTERED</text><text fill="#eeeeee" stroke="none" font-family="Arial" font-size="24px" font-style="normal" font-weight="normal" text-decoration="none" x="600" y="390">UNREGISTERED</text><text fill="#eeeeee" stroke="none" font-family="Arial" font-size="24px" font-style="normal" font-weight="normal" text-decoration="none" x="600" y="420">UNREGISTERED</text><text fill="#eeeeee" stroke="none" font-family="Arial" font-size="24px" font-style="normal" font-weight="normal" text-decoration="none" x="600" y="450">UNREGISTERED</text><text fill="#eeeeee" stroke="none" font-family="Arial" font-size="24px" font-style="normal" font-weight="normal" text-decoration="none" x="600" y="480">UNREGISTERED</text><text fill="#eeeeee" stroke="none" font-family="Arial" font-size="24px" font-style="normal" font-weight="normal" text-decoration="none" x="600" y="510">UNREGISTERED</text><text fill="#eeeeee" stroke="none" font-family="Arial" font-size="24px" font-style="normal" font-weight="normal" text-decoration="none" x="600" y="540">UNREGISTERED</text><text fill="#eeeeee" stroke="none" font-family="Arial" font-size="24px" font-style="normal" font-weight="normal" text-decoration="none" x="600" y="570">UNREGISTERED</text><text fill="#eeeeee" stroke="none" font-family="Arial" font-size="24px" font-style="normal" font-weight="normal" text-decoration="none" x="600" y="600">UNREGISTERED</text><text fill="#eeeeee" stroke="none" font-family="Arial" font-size="24px" font-style="normal" font-weight="normal" text-decoration="none" x="600" y="630">UNREGISTERED</text><text fill="#eeeeee" stroke="none" font-family="Arial" font-size="24px" font-style="normal" font-weight="normal" text-decoration="none" x="600" y="660">UNREGISTERED</text><text fill="#eeeeee" stroke="none" font-family="Arial" font-size="24px" font-style="normal" font-weight="normal" text-decoration="none" x="600" y="690">UNREGISTERED</text><text fill="#eeeeee" stroke="none" font-family="Arial" font-size="24px" font-style="normal" font-weight="normal" text-decoration="none" x="600" y="720">UNREGISTERED</text><text fill="#eeeeee" stroke="none" font-family="Arial" font-size="24px" font-style="normal" font-weight="normal" text-decoration="none" x="600" y="750">UNREGISTERED</text><text fill="#eeeeee" stroke="none" font-family="Arial" font-size="24px" font-style="normal" font-weight="normal" text-decoration="none" x="800" y="0">UNREGISTERED</text><text fill="#eeeeee" stroke="none" font-family="Arial" font-size="24px" font-style="normal" font-weight="normal" text-decoration="none" x="800" y="30">UNREGISTERED</text><text fill="#eeeeee" stroke="none" font-family="Arial" font-size="24px" font-style="normal" font-weight="normal" text-decoration="none" x="800" y="60">UNREGISTERED</text><text fill="#eeeeee" stroke="none" font-family="Arial" font-size="24px" font-style="normal" font-weight="normal" text-decoration="none" x="800" y="90">UNREGISTERED</text><text fill="#eeeeee" stroke="none" font-family="Arial" font-size="24px" font-style="normal" font-weight="normal" text-decoration="none" x="800" y="120">UNREGISTERED</text><text fill="#eeeeee" stroke="none" font-family="Arial" font-size="24px" font-style="normal" font-weight="normal" text-decoration="none" x="800" y="150">UNREGISTERED</text><text fill="#eeeeee" stroke="none" font-family="Arial" font-size="24px" font-style="normal" font-weight="normal" text-decoration="none" x="800" y="180">UNREGISTERED</text><text fill="#eeeeee" stroke="none" font-family="Arial" font-size="24px" font-style="normal" font-weight="normal" text-decoration="none" x="800" y="210">UNREGISTERED</text><text fill="#eeeeee" stroke="none" font-family="Arial" font-size="24px" font-style="normal" font-weight="normal" text-decoration="none" x="800" y="240">UNREGISTERED</text><text fill="#eeeeee" stroke="none" font-family="Arial" font-size="24px" font-style="normal" font-weight="normal" text-decoration="none" x="800" y="270">UNREGISTERED</text><text fill="#eeeeee" stroke="none" font-family="Arial" font-size="24px" font-style="normal" font-weight="normal" text-decoration="none" x="800" y="300">UNREGISTERED</text><text fill="#eeeeee" stroke="none" font-family="Arial" font-size="24px" font-style="normal" font-weight="normal" text-decoration="none" x="800" y="330">UNREGISTERED</text><text fill="#eeeeee" stroke="none" font-family="Arial" font-size="24px" font-style="normal" font-weight="normal" text-decoration="none" x="800" y="360">UNREGISTERED</text><text fill="#eeeeee" stroke="none" font-family="Arial" font-size="24px" font-style="normal" font-weight="normal" text-decoration="none" x="800" y="390">UNREGISTERED</text><text fill="#eeeeee" stroke="none" font-family="Arial" font-size="24px" font-style="normal" font-weight="normal" text-decoration="none" x="800" y="420">UNREGISTERED</text><text fill="#eeeeee" stroke="none" font-family="Arial" font-size="24px" font-style="normal" font-weight="normal" text-decoration="none" x="800" y="450">UNREGISTERED</text><text fill="#eeeeee" stroke="none" font-family="Arial" font-size="24px" font-style="normal" font-weight="normal" text-decoration="none" x="800" y="480">UNREGISTERED</text><text fill="#eeeeee" stroke="none" font-family="Arial" font-size="24px" font-style="normal" font-weight="normal" text-decoration="none" x="800" y="510">UNREGISTERED</text><text fill="#eeeeee" stroke="none" font-family="Arial" font-size="24px" font-style="normal" font-weight="normal" text-decoration="none" x="800" y="540">UNREGISTERED</text><text fill="#eeeeee" stroke="none" font-family="Arial" font-size="24px" font-style="normal" font-weight="normal" text-decoration="none" x="800" y="570">UNREGISTERED</text><text fill="#eeeeee" stroke="none" font-family="Arial" font-size="24px" font-style="normal" font-weight="normal" text-decoration="none" x="800" y="600">UNREGISTERED</text><text fill="#eeeeee" stroke="none" font-family="Arial" font-size="24px" font-style="normal" font-weight="normal" text-decoration="none" x="800" y="630">UNREGISTERED</text><text fill="#eeeeee" stroke="none" font-family="Arial" font-size="24px" font-style="normal" font-weight="normal" text-decoration="none" x="800" y="660">UNREGISTERED</text><text fill="#eeeeee" stroke="none" font-family="Arial" font-size="24px" font-style="normal" font-weight="normal" text-decoration="none" x="800" y="690">UNREGISTERED</text><text fill="#eeeeee" stroke="none" font-family="Arial" font-size="24px" font-style="normal" font-weight="normal" text-decoration="none" x="800" y="720">UNREGISTERED</text><text fill="#eeeeee" stroke="none" font-family="Arial" font-size="24px" font-style="normal" font-weight="normal" text-decoration="none" x="800" y="750">UNREGISTERED</text><text fill="#eeeeee" stroke="none" font-family="Arial" font-size="24px" font-style="normal" font-weight="normal" text-decoration="none" x="1000" y="0">UNREGISTERED</text><text fill="#eeeeee" stroke="none" font-family="Arial" font-size="24px" font-style="normal" font-weight="normal" text-decoration="none" x="1000" y="30">UNREGISTERED</text><text fill="#eeeeee" stroke="none" font-family="Arial" font-size="24px" font-style="normal" font-weight="normal" text-decoration="none" x="1000" y="60">UNREGISTERED</text><text fill="#eeeeee" stroke="none" font-family="Arial" font-size="24px" font-style="normal" font-weight="normal" text-decoration="none" x="1000" y="90">UNREGISTERED</text><text fill="#eeeeee" stroke="none" font-family="Arial" font-size="24px" font-style="normal" font-weight="normal" text-decoration="none" x="1000" y="120">UNREGISTERED</text><text fill="#eeeeee" stroke="none" font-family="Arial" font-size="24px" font-style="normal" font-weight="normal" text-decoration="none" x="1000" y="150">UNREGISTERED</text><text fill="#eeeeee" stroke="none" font-family="Arial" font-size="24px" font-style="normal" font-weight="normal" text-decoration="none" x="1000" y="180">UNREGISTERED</text><text fill="#eeeeee" stroke="none" font-family="Arial" font-size="24px" font-style="normal" font-weight="normal" text-decoration="none" x="1000" y="210">UNREGISTERED</text><text fill="#eeeeee" stroke="none" font-family="Arial" font-size="24px" font-style="normal" font-weight="normal" text-decoration="none" x="1000" y="240">UNREGISTERED</text><text fill="#eeeeee" stroke="none" font-family="Arial" font-size="24px" font-style="normal" font-weight="normal" text-decoration="none" x="1000" y="270">UNREGISTERED</text><text fill="#eeeeee" stroke="none" font-family="Arial" font-size="24px" font-style="normal" font-weight="normal" text-decoration="none" x="1000" y="300">UNREGISTERED</text><text fill="#eeeeee" stroke="none" font-family="Arial" font-size="24px" font-style="normal" font-weight="normal" text-decoration="none" x="1000" y="330">UNREGISTERED</text><text fill="#eeeeee" stroke="none" font-family="Arial" font-size="24px" font-style="normal" font-weight="normal" text-decoration="none" x="1000" y="360">UNREGISTERED</text><text fill="#eeeeee" stroke="none" font-family="Arial" font-size="24px" font-style="normal" font-weight="normal" text-decoration="none" x="1000" y="390">UNREGISTERED</text><text fill="#eeeeee" stroke="none" font-family="Arial" font-size="24px" font-style="normal" font-weight="normal" text-decoration="none" x="1000" y="420">UNREGISTERED</text><text fill="#eeeeee" stroke="none" font-family="Arial" font-size="24px" font-style="normal" font-weight="normal" text-decoration="none" x="1000" y="450">UNREGISTERED</text><text fill="#eeeeee" stroke="none" font-family="Arial" font-size="24px" font-style="normal" font-weight="normal" text-decoration="none" x="1000" y="480">UNREGISTERED</text><text fill="#eeeeee" stroke="none" font-family="Arial" font-size="24px" font-style="normal" font-weight="normal" text-decoration="none" x="1000" y="510">UNREGISTERED</text><text fill="#eeeeee" stroke="none" font-family="Arial" font-size="24px" font-style="normal" font-weight="normal" text-decoration="none" x="1000" y="540">UNREGISTERED</text><text fill="#eeeeee" stroke="none" font-family="Arial" font-size="24px" font-style="normal" font-weight="normal" text-decoration="none" x="1000" y="570">UNREGISTERED</text><text fill="#eeeeee" stroke="none" font-family="Arial" font-size="24px" font-style="normal" font-weight="normal" text-decoration="none" x="1000" y="600">UNREGISTERED</text><text fill="#eeeeee" stroke="none" font-family="Arial" font-size="24px" font-style="normal" font-weight="normal" text-decoration="none" x="1000" y="630">UNREGISTERED</text><text fill="#eeeeee" stroke="none" font-family="Arial" font-size="24px" font-style="normal" font-weight="normal" text-decoration="none" x="1000" y="660">UNREGISTERED</text><text fill="#eeeeee" stroke="none" font-family="Arial" font-size="24px" font-style="normal" font-weight="normal" text-decoration="none" x="1000" y="690">UNREGISTERED</text><text fill="#eeeeee" stroke="none" font-family="Arial" font-size="24px" font-style="normal" font-weight="normal" text-decoration="none" x="1000" y="720">UNREGISTERED</text><text fill="#eeeeee" stroke="none" font-family="Arial" font-size="24px" font-style="normal" font-weight="normal" text-decoration="none" x="1000" y="750">UNREGISTERED</text><g transform="translate(-158,-310) scale(1,1)"><rect fill="#C0C0C0" stroke="none" x="527" y="327" width="704" height="736" opacity="0.2"/></g><g transform="translate(-158,-310) scale(1,1)"><rect fill="#ffffff" stroke="none" x="520" y="320" width="704" height="736"/></g><g transform="translate(-158,-310) scale(1,1)"><path fill="none" stroke="#000000" d="M 520 320 L 1224 320 L 1224 1056 L 520 1056 L 520 320 Z Z" stroke-miterlimit="10"/></g><g transform="translate(-158,-310) scale(1,1)"><g><path fill="none" stroke="none"/><text fill="#000000" stroke="none" font-family="Arial" font-size="13px" font-style="normal" font-weight="bold" text-decoration="none" x="730.399658203125" y="338">Salon De Belleza Cabello Bello JJ Página web</text></g></g><g transform="translate(-158,-310) scale(1,1)"><path fill="#C0C0C0" stroke="none" d="M 567 414.5 C 567 392.6847504 624.0836879999999 375 694.5 375 C 764.9163120000001 375 822 392.6847504 822 414.5 C 822 436.3152496 764.9163120000001 454 694.5 454 C 624.0836879999999 454 567 436.3152496 567 414.5 Z" opacity="0.2"/></g><g transform="translate(-158,-310) scale(1,1)"><path fill="#ffffff" stroke="none" d="M 560 407.5 C 560 385.6847504 617.0836879999999 368 687.5 368 C 757.9163120000001 368 815 385.6847504 815 407.5 C 815 429.3152496 757.9163120000001 447 687.5 447 C 617.0836879999999 447 560 429.3152496 560 407.5 Z"/></g><g transform="translate(-158,-310) scale(1,1)"><path fill="none" stroke="#000000" d="M 560 407.5 C 560 385.6847504 617.0836879999999 368 687.5 368 C 757.9163120000001 368 815 385.6847504 815 407.5 C 815 429.3152496 757.9163120000001 447 687.5 447 C 617.0836879999999 447 560 429.3152496 560 407.5 Z" stroke-miterlimit="10"/></g><g transform="translate(-158,-310) scale(1,1)"><g><path fill="none" stroke="none"/><text fill="#000000" stroke="none" font-family="Arial" font-size="13px" font-style="normal" font-weight="bold" text-decoration="none" x="639.832275390625" y="413">CU001 - Loguin</text></g></g><g transform="translate(-158,-310) scale(1,1)"><path fill="#C0C0C0" stroke="none" d="M 520 578.5 C 520 556.6847504 578.8745488 539 651.5 539 C 724.1254512 539 783 556.6847504 783 578.5 C 783 600.3152496 724.1254512 618 651.5 618 C 578.8745488 618 520 600.3152496 520 578.5 Z" opacity="0.2"/></g><g transform="translate(-158,-310) scale(1,1)"><path fill="#ffffff" stroke="none" d="M 513 571.5 C 513 549.6847504 571.8745488 532 644.5 532 C 717.1254512 532 776 549.6847504 776 571.5 C 776 593.3152496 717.1254512 611 644.5 611 C 571.8745488 611 513 593.3152496 513 571.5 Z"/></g><g transform="translate(-158,-310) scale(1,1)"><path fill="none" stroke="#000000" d="M 513 571.5 C 513 549.6847504 571.8745488 532 644.5 532 C 717.1254512 532 776 549.6847504 776 571.5 C 776 593.3152496 717.1254512 611 644.5 611 C 571.8745488 611 513 593.3152496 513 571.5 Z" stroke-miterlimit="10"/></g><g transform="translate(-158,-310) scale(1,1)"><g><path fill="none" stroke="none"/><text fill="#000000" stroke="none" font-family="Arial" font-size="13px" font-style="normal" font-weight="bold" text-decoration="none" x="562.142333984375" y="577">CU002 - Gestionar Usuario</text></g></g><g transform="translate(-158,-310) scale(1,1)"><path fill="#C0C0C0" stroke="none" d="M 848 472.5 C 848 452.8938896 903.2928272 437 971.5 437 C 1039.7071728 437 1095 452.8938896 1095 472.5 C 1095 492.1061104 1039.7071728 508 971.5 508 C 903.2928272 508 848 492.1061104 848 472.5 Z" opacity="0.2"/></g><g transform="translate(-158,-310) scale(1,1)"><path fill="#ffffff" stroke="none" d="M 841 465.5 C 841 445.8938896 896.2928272 430 964.5 430 C 1032.7071728 430 1088 445.8938896 1088 465.5 C 1088 485.1061104 1032.7071728 501 964.5 501 C 896.2928272 501 841 485.1061104 841 465.5 Z"/></g><g transform="translate(-158,-310) scale(1,1)"><path fill="none" stroke="#000000" d="M 841 465.5 C 841 445.8938896 896.2928272 430 964.5 430 C 1032.7071728 430 1088 445.8938896 1088 465.5 C 1088 485.1061104 1032.7071728 501 964.5 501 C 896.2928272 501 841 485.1061104 841 465.5 Z" stroke-miterlimit="10"/></g><g transform="translate(-158,-310) scale(1,1)"><g><path fill="none" stroke="none"/><text fill="#000000" stroke="none" font-family="Arial" font-size="13px" font-style="normal" font-weight="bold" text-decoration="none" x="936.31640625" y="471">Ver Perfil</text></g></g><g transform="translate(-158,-310) scale(1,1)"><path fill="#C0C0C0" stroke="none" d="M 840 580.5 C 840 563.1030288 897.0836879999999 549 967.5 549 C 1037.916312 549 1095 563.1030288 1095 580.5 C 1095 597.8969712 1037.916312 612 967.5 612 C 897.0836879999999 612 840 597.8969712 840 580.5 Z" opacity="0.2"/></g><g transform="translate(-158,-310) scale(1,1)"><path fill="#ffffff" stroke="none" d="M 833 573.5 C 833 556.1030288 890.0836879999999 542 960.5 542 C 1030.916312 542 1088 556.1030288 1088 573.5 C 1088 590.8969712 1030.916312 605 960.5 605 C 890.0836879999999 605 833 590.8969712 833 573.5 Z"/></g><g transform="translate(-158,-310) scale(1,1)"><path fill="none" stroke="#000000" d="M 833 573.5 C 833 556.1030288 890.0836879999999 542 960.5 542 C 1030.916312 542 1088 556.1030288 1088 573.5 C 1088 590.8969712 1030.916312 605 960.5 605 C 890.0836879999999 605 833 590.8969712 833 573.5 Z" stroke-miterlimit="10"/></g><g transform="translate(-158,-310) scale(1,1)"><g><path fill="none" stroke="none"/><text fill="#000000" stroke="none" font-family="Arial" font-size="13px" font-style="normal" font-weight="bold" text-decoration="none" x="911.372314453125" y="579">Actualizar Perfil</text></g></g><g transform="translate(-158,-310) scale(1,1)"><path fill="none" stroke="#000000" d="M 832 572 L 777 572" stroke-miterlimit="10" stroke-dasharray="3"/></g><g transform="translate(-158,-310) scale(1,1)"><path fill="none" stroke="#000000" d="M 787.1626748576241 567.790482243984 L 777 572 L 787.1626748576241 576.209517756016" stroke-miterlimit="10"/></g><g transform="translate(-158,-310) scale(1,1)"><g><path fill="none" stroke="none"/><text fill="#000000" stroke="none" font-family="Arial" font-size="13px" font-style="normal" font-weight="normal" text-decoration="none" x="776.5" y="607">«extend»</text></g></g><g transform="translate(-158,-310) scale(1,1)"><path fill="none" stroke="#000000" d="M 852 502 L 765 531" stroke-miterlimit="10" stroke-dasharray="3"/></g><g transform="translate(-158,-310) scale(1,1)"><path fill="none" stroke="#000000" d="M 773.3099935049528 523.7927808450386 L 765 531 L 775.9723262969391 531.7797792209975" stroke-miterlimit="10"/></g><g transform="translate(-158,-310) scale(1,1)"><g><path fill="none" stroke="none"/><text fill="#000000" stroke="none" font-family="Arial" font-size="13px" font-style="normal" font-weight="normal" text-decoration="none" x="789.5" y="549">«include»</text></g></g><g transform="translate(-158,-310) scale(1,1)"><path fill="#C0C0C0" stroke="none" d="M 887 671 C 887 653.3268864 933.5623808 639 991 639 C 1048.4376192 639 1095 653.3268864 1095 671 C 1095 688.6731136 1048.4376192 703 991 703 C 933.5623808 703 887 688.6731136 887 671 Z" opacity="0.2"/></g><g transform="translate(-158,-310) scale(1,1)"><path fill="#ffffff" stroke="none" d="M 880 664 C 880 646.3268864 926.5623808 632 984 632 C 1041.4376192 632 1088 646.3268864 1088 664 C 1088 681.6731136 1041.4376192 696 984 696 C 926.5623808 696 880 681.6731136 880 664 Z"/></g><g transform="translate(-158,-310) scale(1,1)"><path fill="none" stroke="#000000" d="M 880 664 C 880 646.3268864 926.5623808 632 984 632 C 1041.4376192 632 1088 646.3268864 1088 664 C 1088 681.6731136 1041.4376192 696 984 696 C 926.5623808 696 880 681.6731136 880 664 Z" stroke-miterlimit="10"/></g><g transform="translate(-158,-310) scale(1,1)"><g><path fill="none" stroke="none"/><text fill="#000000" stroke="none" font-family="Arial" font-size="13px" font-style="normal" font-weight="bold" text-decoration="none" x="940.29638671875" y="669.5">Ver productos</text></g></g><g transform="translate(-158,-310) scale(1,1)"><path fill="#C0C0C0" stroke="none" d="M 895 767 C 895 749.3268864 943.3532416 735 1003 735 C 1062.6467584 735 1111 749.3268864 1111 767 C 1111 784.6731136 1062.6467584 799 1003 799 C 943.3532416 799 895 784.6731136 895 767 Z" opacity="0.2"/></g><g transform="translate(-158,-310) scale(1,1)"><path fill="#ffffff" stroke="none" d="M 888 760 C 888 742.3268864 936.3532416 728 996 728 C 1055.6467584 728 1104 742.3268864 1104 760 C 1104 777.6731136 1055.6467584 792 996 792 C 936.3532416 792 888 777.6731136 888 760 Z"/></g><g transform="translate(-158,-310) scale(1,1)"><path fill="none" stroke="#000000" d="M 888 760 C 888 742.3268864 936.3532416 728 996 728 C 1055.6467584 728 1104 742.3268864 1104 760 C 1104 777.6731136 1055.6467584 792 996 792 C 936.3532416 792 888 777.6731136 888 760 Z" stroke-miterlimit="10"/></g><g transform="translate(-158,-310) scale(1,1)"><g><path fill="none" stroke="none"/><text fill="#000000" stroke="none" font-family="Arial" font-size="13px" font-style="normal" font-weight="bold" text-decoration="none" x="931.352294921875" y="765.5">Actualizar productos</text></g></g><g transform="translate(-158,-310) scale(1,1)"><path fill="#ffffff" stroke="none" d="M 202.32886470170456 606.0799999999999 C 202.32886470170456 590.0195580159999 214.84991219319545 577 230.29541015625 577 C 245.74090811930455 577 258.26195561079544 590.0195580159999 258.26195561079544 606.0799999999999 C 258.26195561079544 622.140441984 245.74090811930455 635.16 230.29541015625 635.16 C 214.84991219319545 635.16 202.32886470170456 622.140441984 202.32886470170456 606.0799999999999 Z"/></g><g transform="translate(-158,-310) scale(1,1)"><path fill="none" stroke="#000000" d="M 202.32886470170456 606.0799999999999 C 202.32886470170456 590.0195580159999 214.84991219319545 577 230.29541015625 577 C 245.74090811930455 577 258.26195561079544 590.0195580159999 258.26195561079544 606.0799999999999 C 258.26195561079544 622.140441984 245.74090811930455 635.16 230.29541015625 635.16 C 214.84991219319545 635.16 202.32886470170456 622.140441984 202.32886470170456 606.0799999999999 Z" stroke-miterlimit="10"/></g><g transform="translate(-158,-310) scale(1,1)"><path fill="none" stroke="#000000" d="M 230.29541015625 635.16 L 230.29541015625 690.84" stroke-miterlimit="10"/></g><g transform="translate(-158,-310) scale(1,1)"><path fill="none" stroke="#000000" d="M 200.68377379261364 656.04 L 259.90704651988636 656.04" stroke-miterlimit="10"/></g><g transform="translate(-158,-310) scale(1,1)"><path fill="none" stroke="#000000" d="M 230.29541015625 690.84 L 189.16813742897727 749" stroke-miterlimit="10"/></g><g transform="translate(-158,-310) scale(1,1)"><path fill="none" stroke="#000000" d="M 230.29541015625 690.84 L 271.4226828835227 749" stroke-miterlimit="10"/></g><g transform="translate(-158,-310) scale(1,1)"><g><path fill="none" stroke="none"/><text fill="#000000" stroke="none" font-family="Arial" font-size="13px" font-style="normal" font-weight="bold" text-decoration="none" x="172.5" y="768">Empleado - Ventas</text></g></g><g transform="translate(-158,-310) scale(1,1)"><path fill="none" stroke="#000000" d="M 294 638 L 617 448" stroke-miterlimit="10"/></g><g transform="translate(-158,-310) scale(1,1)"><path fill="none" stroke="#000000" d="M 610.3747530481162 456.78100807575953 L 617 448 L 606.106132597264 449.52435330931087" stroke-miterlimit="10"/></g><g transform="translate(-158,-310) scale(1,1)"><path fill="none" stroke="#000000" d="M 294 659 L 512 604" stroke-miterlimit="10"/></g><g transform="translate(-158,-310) scale(1,1)"><path fill="none" stroke="#000000" d="M 503.17586444189726 610.5676960688073 L 512 604 L 501.11633148173036 602.4044563357821" stroke-miterlimit="10"/></g><g transform="translate(-158,-310) scale(1,1)"><path fill="#C0C0C0" stroke="none" d="M 511 704 C 511 685.7746016 573.2324128 671 650 671 C 726.7675872 671 789 685.7746016 789 704 C 789 722.2253984 726.7675872 737 650 737 C 573.2324128 737 511 722.2253984 511 704 Z" opacity="0.2"/></g><g transform="translate(-158,-310) scale(1,1)"><path fill="#ffffff" stroke="none" d="M 504 697 C 504 678.7746016 566.2324128 664 643 664 C 719.7675872 664 782 678.7746016 782 697 C 782 715.2253984 719.7675872 730 643 730 C 566.2324128 730 504 715.2253984 504 697 Z"/></g><g transform="translate(-158,-310) scale(1,1)"><path fill="none" stroke="#000000" d="M 504 697 C 504 678.7746016 566.2324128 664 643 664 C 719.7675872 664 782 678.7746016 782 697 C 782 715.2253984 719.7675872 730 643 730 C 566.2324128 730 504 715.2253984 504 697 Z" stroke-miterlimit="10"/></g><g transform="translate(-158,-310) scale(1,1)"><g><path fill="none" stroke="none"/><text fill="#000000" stroke="none" font-family="Arial" font-size="13px" font-style="normal" font-weight="bold" text-decoration="none" x="549.08642578125" y="702.5">CU004 - Gestionar Preoductos</text></g></g><g transform="translate(-158,-310) scale(1,1)"><path fill="none" stroke="#000000" d="M 294 678 L 503 690" stroke-miterlimit="10"/></g><g transform="translate(-158,-310) scale(1,1)"><path fill="none" stroke="#000000" d="M 492.61273772433975 693.6200528195933 L 503 690 L 493.0953325099295 685.2148603039054" stroke-miterlimit="10"/></g><g transform="translate(-158,-310) scale(1,1)"><path fill="#C0C0C0" stroke="none" d="M 527 874.5 C 527 854.8938896 582.5166848 839 651 839 C 719.4833152 839 775 854.8938896 775 874.5 C 775 894.1061104 719.4833152 910 651 910 C 582.5166848 910 527 894.1061104 527 874.5 Z" opacity="0.2"/></g><g transform="translate(-158,-310) scale(1,1)"><path fill="#ffffff" stroke="none" d="M 520 867.5 C 520 847.8938896 575.5166848 832 644 832 C 712.4833152 832 768 847.8938896 768 867.5 C 768 887.1061104 712.4833152 903 644 903 C 575.5166848 903 520 887.1061104 520 867.5 Z"/></g><g transform="translate(-158,-310) scale(1,1)"><path fill="none" stroke="#000000" d="M 520 867.5 C 520 847.8938896 575.5166848 832 644 832 C 712.4833152 832 768 847.8938896 768 867.5 C 768 887.1061104 712.4833152 903 644 903 C 575.5166848 903 520 887.1061104 520 867.5 Z" stroke-miterlimit="10"/></g><g transform="translate(-158,-310) scale(1,1)"><g><path fill="none" stroke="none"/><text fill="#000000" stroke="none" font-family="Arial" font-size="13px" font-style="normal" font-weight="bold" text-decoration="none" x="564.885986328125" y="873">CU005 - Gestionar Ventas</text></g></g><g transform="translate(-158,-310) scale(1,1)"><path fill="none" stroke="#000000" d="M 879 674 L 783 683" stroke-miterlimit="10" stroke-dasharray="3"/></g><g transform="translate(-158,-310) scale(1,1)"><path fill="none" stroke="#000000" d="M 792.7253875459603 677.8602687734784 L 783 683 L 793.5112262871653 686.242548679666" stroke-miterlimit="10"/></g><g transform="translate(-158,-310) scale(1,1)"><g><path fill="none" stroke="none"/><text fill="#000000" stroke="none" font-family="Arial" font-size="13px" font-style="normal" font-weight="normal" text-decoration="none" x="806.5" y="712">«include»</text></g></g><g transform="translate(-158,-310) scale(1,1)"><path fill="none" stroke="#000000" d="M 887 741 L 783 722" stroke-miterlimit="10" stroke-dasharray="3"/></g><g transform="translate(-158,-310) scale(1,1)"><path fill="none" stroke="#000000" d="M 793.753733452622 719.6854337706692 L 783 722 L 792.2406833236869 727.9673923711565" stroke-miterlimit="10"/></g><g transform="translate(-158,-310) scale(1,1)"><g><path fill="none" stroke="none"/><text fill="#000000" stroke="none" font-family="Arial" font-size="13px" font-style="normal" font-weight="normal" text-decoration="none" x="802.5" y="765">«extend»</text></g></g><g transform="translate(-158,-310) scale(1,1)"><path fill="#C0C0C0" stroke="none" d="M 951 848 C 951 838.6111584 974.7289056 831 1004 831 C 1033.2710944 831 1057 838.6111584 1057 848 C 1057 857.3888416 1033.2710944 865 1004 865 C 974.7289056 865 951 857.3888416 951 848 Z" opacity="0.2"/></g><g transform="translate(-158,-310) scale(1,1)"><path fill="#ffffff" stroke="none" d="M 944 841 C 944 831.6111584 967.7289056 824 997 824 C 1026.2710944 824 1050 831.6111584 1050 841 C 1050 850.3888416 1026.2710944 858 997 858 C 967.7289056 858 944 850.3888416 944 841 Z"/></g><g transform="translate(-158,-310) scale(1,1)"><path fill="none" stroke="#000000" d="M 944 841 C 944 831.6111584 967.7289056 824 997 824 C 1026.2710944 824 1050 831.6111584 1050 841 C 1050 850.3888416 1026.2710944 858 997 858 C 967.7289056 858 944 850.3888416 944 841 Z" stroke-miterlimit="10"/></g><g transform="translate(-158,-310) scale(1,1)"><g><path fill="none" stroke="none"/><text fill="#000000" stroke="none" font-family="Arial" font-size="13px" font-style="normal" font-weight="bold" text-decoration="none" x="964.115966796875" y="846.5">Ver Ventas</text></g></g><g transform="translate(-158,-310) scale(1,1)"><path fill="#C0C0C0" stroke="none" d="M 935 912 C 935 902.6111584 964.101488 895 1000 895 C 1035.898512 895 1065 902.6111584 1065 912 C 1065 921.3888416 1035.898512 929 1000 929 C 964.101488 929 935 921.3888416 935 912 Z" opacity="0.2"/></g><g transform="translate(-158,-310) scale(1,1)"><path fill="#ffffff" stroke="none" d="M 928 905 C 928 895.6111584 957.101488 888 993 888 C 1028.898512 888 1058 895.6111584 1058 905 C 1058 914.3888416 1028.898512 922 993 922 C 957.101488 922 928 914.3888416 928 905 Z"/></g><g transform="translate(-158,-310) scale(1,1)"><path fill="none" stroke="#000000" d="M 928 905 C 928 895.6111584 957.101488 888 993 888 C 1028.898512 888 1058 895.6111584 1058 905 C 1058 914.3888416 1028.898512 922 993 922 C 957.101488 922 928 914.3888416 928 905 Z" stroke-miterlimit="10"/></g><g transform="translate(-158,-310) scale(1,1)"><g><path fill="none" stroke="none"/><text fill="#000000" stroke="none" font-family="Arial" font-size="13px" font-style="normal" font-weight="bold" text-decoration="none" x="951.451416015625" y="910.5">Realiza Venta</text></g></g><g transform="translate(-158,-310) scale(1,1)"><path fill="#C0C0C0" stroke="none" d="M 911 984 C 911 974.6111584 952.8613712 967 1004.5 967 C 1056.1386288 967 1098 974.6111584 1098 984 C 1098 993.3888416 1056.1386288 1001 1004.5 1001 C 952.8613712 1001 911 993.3888416 911 984 Z" opacity="0.2"/></g><g transform="translate(-158,-310) scale(1,1)"><path fill="#ffffff" stroke="none" d="M 904 977 C 904 967.6111584 945.8613712 960 997.5 960 C 1049.1386288 960 1091 967.6111584 1091 977 C 1091 986.3888416 1049.1386288 994 997.5 994 C 945.8613712 994 904 986.3888416 904 977 Z"/></g><g transform="translate(-158,-310) scale(1,1)"><path fill="none" stroke="#000000" d="M 904 977 C 904 967.6111584 945.8613712 960 997.5 960 C 1049.1386288 960 1091 967.6111584 1091 977 C 1091 986.3888416 1049.1386288 994 997.5 994 C 945.8613712 994 904 986.3888416 904 977 Z" stroke-miterlimit="10"/></g><g transform="translate(-158,-310) scale(1,1)"><g><path fill="none" stroke="none"/><text fill="#000000" stroke="none" font-family="Arial" font-size="13px" font-style="normal" font-weight="bold" text-decoration="none" x="935.727783203125" y="982.5">Generar una factura</text></g></g><g transform="translate(-158,-310) scale(1,1)"><path fill="none" stroke="#000000" d="M 943 845 L 769 858" stroke-miterlimit="10" stroke-dasharray="3"/></g><g transform="translate(-158,-310) scale(1,1)"><path fill="none" stroke="#000000" d="M 778.8207990535813 853.0450120132156 L 769 858 L 779.4480592136109 861.4406480013046" stroke-miterlimit="10"/></g><g transform="translate(-158,-310) scale(1,1)"><g><path fill="none" stroke="none"/><text fill="#000000" stroke="none" font-family="Arial" font-size="13px" font-style="normal" font-weight="normal" text-decoration="none" x="830.5" y="885">«include»</text></g></g><g transform="translate(-158,-310) scale(1,1)"><path fill="none" stroke="#000000" d="M 927 898 L 769 881" stroke-miterlimit="10" stroke-dasharray="3"/></g><g transform="translate(-158,-310) scale(1,1)"><path fill="none" stroke="#000000" d="M 779.5546794318631 877.9018163239396 L 769 881 L 778.6540320862243 886.2725387128168" stroke-miterlimit="10"/></g><g transform="translate(-158,-310) scale(1,1)"><g><path fill="none" stroke="none"/><text fill="#000000" stroke="none" font-family="Arial" font-size="13px" font-style="normal" font-weight="normal" text-decoration="none" x="817.5" y="923">«extend»</text></g></g><g transform="translate(-158,-310) scale(1,1)"><path fill="none" stroke="#000000" d="M 939 959 L 763 904" stroke-miterlimit="10" stroke-dasharray="3"/></g><g transform="translate(-158,-310) scale(1,1)"><path fill="none" stroke="#000000" d="M 773.9556635546636 903.0133713581005 L 763 904 L 771.444475795101 911.0491721887009" stroke-miterlimit="10"/></g><g transform="translate(-158,-310) scale(1,1)"><g><path fill="none" stroke="none"/><text fill="#000000" stroke="none" font-family="Arial" font-size="13px" font-style="normal" font-weight="normal" text-decoration="none" x="815.5" y="964">«extend»</text></g></g><g transform="translate(-158,-310) scale(1,1)"><path fill="none" stroke="#000000" d="M 294 704 L 566 831" stroke-miterlimit="10"/></g><g transform="translate(-158,-310) scale(1,1)"><path fill="none" stroke="#000000" d="M 555.0107089476483 830.514734952111 L 566 831 L 558.5725319824846 822.8862635704143" stroke-miterlimit="10"/></g></g></svg>