<svg version="1.1" xmlns="http://www.w3.org/2000/svg" xmlns:xlink="http://www.w3.org/1999/xlink" width="1052" height="636"><defs/><g><text fill="#eeeeee" stroke="none" font-family="Arial" font-size="24px" font-style="normal" font-weight="normal" text-decoration="none" x="0" y="0">UNREGISTERED</text><text fill="#eeeeee" stroke="none" font-family="Arial" font-size="24px" font-style="normal" font-weight="normal" text-decoration="none" x="0" y="30">UNREGISTERED</text><text fill="#eeeeee" stroke="none" font-family="Arial" font-size="24px" font-style="normal" font-weight="normal" text-decoration="none" x="0" y="60">UNREGISTERED</text><text fill="#eeeeee" stroke="none" font-family="Arial" font-size="24px" font-style="normal" font-weight="normal" text-decoration="none" x="0" y="90">UNREGISTERED</text><text fill="#eeeeee" stroke="none" font-family="Arial" font-size="24px" font-style="normal" font-weight="normal" text-decoration="none" x="0" y="120">UNREGISTERED</text><text fill="#eeeeee" stroke="none" font-family="Arial" font-size="24px" font-style="normal" font-weight="normal" text-decoration="none" x="0" y="150">UNREGISTERED</text><text fill="#eeeeee" stroke="none" font-family="Arial" font-size="24px" font-style="normal" font-weight="normal" text-decoration="none" x="0" y="180">UNREGISTERED</text><text fill="#eeeeee" stroke="none" font-family="Arial" font-size="24px" font-style="normal" font-weight="normal" text-decoration="none" x="0" y="210">UNREGISTERED</text><text fill="#eeeeee" stroke="none" font-family="Arial" font-size="24px" font-style="normal" font-weight="normal" text-decoration="none" x="0" y="240">UNREGISTERED</text><text fill="#eeeeee" stroke="none" font-family="Arial" font-size="24px" font-style="normal" font-weight="normal" text-decoration="none" x="0" y="270">UNREGISTERED</text><text fill="#eeeeee" stroke="none" font-family="Arial" font-size="24px" font-style="normal" font-weight="normal" text-decoration="none" x="0" y="300">UNREGISTERED</text><text fill="#eeeeee" stroke="none" font-family="Arial" font-size="24px" font-style="normal" font-weight="normal" text-decoration="none" x="0" y="330">UNREGISTERED</text><text fill="#eeeeee" stroke="none" font-family="Arial" font-size="24px" font-style="normal" font-weight="normal" text-decoration="none" x="0" y="360">UNREGISTERED</text><text fill="#eeeeee" stroke="none" font-family="Arial" font-size="24px" font-style="normal" font-weight="normal" text-decoration="none" x="0" y="390">UNREGISTERED</text><text fill="#eeeeee" stroke="none" font-family="Arial" font-size="24px" font-style="normal" font-weight="normal" text-decoration="none" x="0" y="420">UNREGISTERED</text><text fill="#eeeeee" stroke="none" font-family="Arial" font-size="24px" font-style="normal" font-weight="normal" text-decoration="none" x="0" y="450">UNREGISTERED</text><text fill="#eeeeee" stroke="none" font-family="Arial" font-size="24px" font-style="normal" font-weight="normal" text-decoration="none" x="0" y="480">UNREGISTERED</text><text fill="#eeeeee" stroke="none" font-family="Arial" font-size="24px" font-style="normal" font-weight="normal" text-decoration="none" x="0" y="510">UNREGISTERED</text><text fill="#eeeeee" stroke="none" font-family="Arial" font-size="24px" font-style="normal" font-weight="normal" text-decoration="none" x="0" y="540">UNREGISTERED</text><text fill="#eeeeee" stroke="none" font-family="Arial" font-size="24px" font-style="normal" font-weight="normal" text-decoration="none" x="0" y="570">UNREGISTERED</text><text fill="#eeeeee" stroke="none" font-family="Arial" font-size="24px" font-style="normal" font-weight="normal" text-decoration="none" x="0" y="600">UNREGISTERED</text><text fill="#eeeeee" stroke="none" font-family="Arial" font-size="24px" font-style="normal" font-weight="normal" text-decoration="none" x="0" y="630">UNREGISTERED</text><text fill="#eeeeee" stroke="none" font-family="Arial" font-size="24px" font-style="normal" font-weight="normal" text-decoration="none" x="200" y="0">UNREGISTERED</text><text fill="#eeeeee" stroke="none" font-family="Arial" font-size="24px" font-style="normal" font-weight="normal" text-decoration="none" x="200" y="30">UNREGISTERED</text><text fill="#eeeeee" stroke="none" font-family="Arial" font-size="24px" font-style="normal" font-weight="normal" text-decoration="none" x="200" y="60">UNREGISTERED</text><text fill="#eeeeee" stroke="none" font-family="Arial" font-size="24px" font-style="normal" font-weight="normal" text-decoration="none" x="200" y="90">UNREGISTERED</text><text fill="#eeeeee" stroke="none" font-family="Arial" font-size="24px" font-style="normal" font-weight="normal" text-decoration="none" x="200" y="120">UNREGISTERED</text><text fill="#eeeeee" stroke="none" font-family="Arial" font-size="24px" font-style="normal" font-weight="normal" text-decoration="none" x="200" y="150">UNREGISTERED</text><text fill="#eeeeee" stroke="none" font-family="Arial" font-size="24px" font-style="normal" font-weight="normal" text-decoration="none" x="200" y="180">UNREGISTERED</text><text fill="#eeeeee" stroke="none" font-family="Arial" font-size="24px" font-style="normal" font-weight="normal" text-decoration="none" x="200" y="210">UNREGISTERED</text><text fill="#eeeeee" stroke="none" font-family="Arial" font-size="24px" font-style="normal" font-weight="normal" text-decoration="none" x="200" y="240">UNREGISTERED</text><text fill="#eeeeee" stroke="none" font-family="Arial" font-size="24px" font-style="normal" font-weight="normal" text-decoration="none" x="200" y="270">UNREGISTERED</text><text fill="#eeeeee" stroke="none" font-family="Arial" font-size="24px" font-style="normal" font-weight="normal" text-decoration="none" x="200" y="300">UNREGISTERED</text><text fill="#eeeeee" stroke="none" font-family="Arial" font-size="24px" font-style="normal" font-weight="normal" text-decoration="none" x="200" y="330">UNREGISTERED</text><text fill="#eeeeee" stroke="none" font-family="Arial" font-size="24px" font-style="normal" font-weight="normal" text-decoration="none" x="200" y="360">UNREGISTERED</text><text fill="#eeeeee" stroke="none" font-family="Arial" font-size="24px" font-style="normal" font-weight="normal" text-decoration="none" x="200" y="390">UNREGISTERED</text><text fill="#eeeeee" stroke="none" font-family="Arial" font-size="24px" font-style="normal" font-weight="normal" text-decoration="none" x="200" y="420">UNREGISTERED</text><text fill="#eeeeee" stroke="none" font-family="Arial" font-size="24px" font-style="normal" font-weight="normal" text-decoration="none" x="200" y="450">UNREGISTERED</text><text fill="#eeeeee" stroke="none" font-family="Arial" font-size="24px" font-style="normal" font-weight="normal" text-decoration="none" x="200" y="480">UNREGISTERED</text><text fill="#eeeeee" stroke="none" font-family="Arial" font-size="24px" font-style="normal" font-weight="normal" text-decoration="none" x="200" y="510">UNREGISTERED</text><text fill="#eeeeee" stroke="none" font-family="Arial" font-size="24px" font-style="normal" font-weight="normal" text-decoration="none" x="200" y="540">UNREGISTERED</text><text fill="#eeeeee" stroke="none" font-family="Arial" font-size="24px" font-style="normal" font-weight="normal" text-decoration="none" x="200" y="570">UNREGISTERED</text><text fill="#eeeeee" stroke="none" font-family="Arial" font-size="24px" font-style="normal" font-weight="normal" text-decoration="none" x="200" y="600">UNREGISTERED</text><text fill="#eeeeee" stroke="none" font-family="Arial" font-size="24px" font-style="normal" font-weight="normal" text-decoration="none" x="200" y="630">UNREGISTERED</text><text fill="#eeeeee" stroke="none" font-family="Arial" font-size="24px" font-style="normal" font-weight="normal" text-decoration="none" x="400" y="0">UNREGISTERED</text><text fill="#eeeeee" stroke="none" font-family="Arial" font-size="24px" font-style="normal" font-weight="normal" text-decoration="none" x="400" y="30">UNREGISTERED</text><text fill="#eeeeee" stroke="none" font-family="Arial" font-size="24px" font-style="normal" font-weight="normal" text-decoration="none" x="400" y="60">UNREGISTERED</text><text fill="#eeeeee" stroke="none" font-family="Arial" font-size="24px" font-style="normal" font-weight="normal" text-decoration="none" x="400" y="90">UNREGISTERED</text><text fill="#eeeeee" stroke="none" font-family="Arial" font-size="24px" font-style="normal" font-weight="normal" text-decoration="none" x="400" y="120">UNREGISTERED</text><text fill="#eeeeee" stroke="none" font-family="Arial" font-size="24px" font-style="normal" font-weight="normal" text-decoration="none" x="400" y="150">UNREGISTERED</text><text fill="#eeeeee" stroke="none" font-family="Arial" font-size="24px" font-style="normal" font-weight="normal" text-decoration="none" x="400" y="180">UNREGISTERED</text><text fill="#eeeeee" stroke="none" font-family="Arial" font-size="24px" font-style="normal" font-weight="normal" text-decoration="none" x="400" y="210">UNREGISTERED</text><text fill="#eeeeee" stroke="none" font-family="Arial" font-size="24px" font-style="normal" font-weight="normal" text-decoration="none" x="400" y="240">UNREGISTERED</text><text fill="#eeeeee" stroke="none" font-family="Arial" font-size="24px" font-style="normal" font-weight="normal" text-decoration="none" x="400" y="270">UNREGISTERED</text><text fill="#eeeeee" stroke="none" font-family="Arial" font-size="24px" font-style="normal" font-weight="normal" text-decoration="none" x="400" y="300">UNREGISTERED</text><text fill="#eeeeee" stroke="none" font-family="Arial" font-size="24px" font-style="normal" font-weight="normal" text-decoration="none" x="400" y="330">UNREGISTERED</text><text fill="#eeeeee" stroke="none" font-family="Arial" font-size="24px" font-style="normal" font-weight="normal" text-decoration="none" x="400" y="360">UNREGISTERED</text><text fill="#eeeeee" stroke="none" font-family="Arial" font-size="24px" font-style="normal" font-weight="normal" text-decoration="none" x="400" y="390">UNREGISTERED</text><text fill="#eeeeee" stroke="none" font-family="Arial" font-size="24px" font-style="normal" font-weight="normal" text-decoration="none" x="400" y="420">UNREGISTERED</text><text fill="#eeeeee" stroke="none" font-family="Arial" font-size="24px" font-style="normal" font-weight="normal" text-decoration="none" x="400" y="450">UNREGISTERED</text><text fill="#eeeeee" stroke="none" font-family="Arial" font-size="24px" font-style="normal" font-weight="normal" text-decoration="none" x="400" y="480">UNREGISTERED</text><text fill="#eeeeee" stroke="none" font-family="Arial" font-size="24px" font-style="normal" font-weight="normal" text-decoration="none" x="400" y="510">UNREGISTERED</text><text fill="#eeeeee" stroke="none" font-family="Arial" font-size="24px" font-style="normal" font-weight="normal" text-decoration="none" x="400" y="540">UNREGISTERED</text><text fill="#eeeeee" stroke="none" font-family="Arial" font-size="24px" font-style="normal" font-weight="normal" text-decoration="none" x="400" y="570">UNREGISTERED</text><text fill="#eeeeee" stroke="none" font-family="Arial" font-size="24px" font-style="normal" font-weight="normal" text-decoration="none" x="400" y="600">UNREGISTERED</text><text fill="#eeeeee" stroke="none" font-family="Arial" font-size="24px" font-style="normal" font-weight="normal" text-decoration="none" x="400" y="630">UNREGISTERED</text><text fill="#eeeeee" stroke="none" font-family="Arial" font-size="24px" font-style="normal" font-weight="normal" text-decoration="none" x="600" y="0">UNREGISTERED</text><text fill="#eeeeee" stroke="none" font-family="Arial" font-size="24px" font-style="normal" font-weight="normal" text-decoration="none" x="600" y="30">UNREGISTERED</text><text fill="#eeeeee" stroke="none" font-family="Arial" font-size="24px" font-style="normal" font-weight="normal" text-decoration="none" x="600" y="60">UNREGISTERED</text><text fill="#eeeeee" stroke="none" font-family="Arial" font-size="24px" font-style="normal" font-weight="normal" text-decoration="none" x="600" y="90">UNREGISTERED</text><text fill="#eeeeee" stroke="none" font-family="Arial" font-size="24px" font-style="normal" font-weight="normal" text-decoration="none" x="600" y="120">UNREGISTERED</text><text fill="#eeeeee" stroke="none" font-family="Arial" font-size="24px" font-style="normal" font-weight="normal" text-decoration="none" x="600" y="150">UNREGISTERED</text><text fill="#eeeeee" stroke="none" font-family="Arial" font-size="24px" font-style="normal" font-weight="normal" text-decoration="none" x="600" y="180">UNREGISTERED</text><text fill="#eeeeee" stroke="none" font-family="Arial" font-size="24px" font-style="normal" font-weight="normal" text-decoration="none" x="600" y="210">UNREGISTERED</text><text fill="#eeeeee" stroke="none" font-family="Arial" font-size="24px" font-style="normal" font-weight="normal" text-decoration="none" x="600" y="240">UNREGISTERED</text><text fill="#eeeeee" stroke="none" font-family="Arial" font-size="24px" font-style="normal" font-weight="normal" text-decoration="none" x="600" y="270">UNREGISTERED</text><text fill="#eeeeee" stroke="none" font-family="Arial" font-size="24px" font-style="normal" font-weight="normal" text-decoration="none" x="600" y="300">UNREGISTERED</text><text fill="#eeeeee" stroke="none" font-family="Arial" font-size="24px" font-style="normal" font-weight="normal" text-decoration="none" x="600" y="330">UNREGISTERED</text><text fill="#eeeeee" stroke="none" font-family="Arial" font-size="24px" font-style="normal" font-weight="normal" text-decoration="none" x="600" y="360">UNREGISTERED</text><text fill="#eeeeee" stroke="none" font-family="Arial" font-size="24px" font-style="normal" font-weight="normal" text-decoration="none" x="600" y="390">UNREGISTERED</text><text fill="#eeeeee" stroke="none" font-family="Arial" font-size="24px" font-style="normal" font-weight="normal" text-decoration="none" x="600" y="420">UNREGISTERED</text><text fill="#eeeeee" stroke="none" font-family="Arial" font-size="24px" font-style="normal" font-weight="normal" text-decoration="none" x="600" y="450">UNREGISTERED</text><text fill="#eeeeee" stroke="none" font-family="Arial" font-size="24px" font-style="normal" font-weight="normal" text-decoration="none" x="600" y="480">UNREGISTERED</text><text fill="#eeeeee" stroke="none" font-family="Arial" font-size="24px" font-style="normal" font-weight="normal" text-decoration="none" x="600" y="510">UNREGISTERED</text><text fill="#eeeeee" stroke="none" font-family="Arial" font-size="24px" font-style="normal" font-weight="normal" text-decoration="none" x="600" y="540">UNREGISTERED</text><text fill="#eeeeee" stroke="none" font-family="Arial" font-size="24px" font-style="normal" font-weight="normal" text-decoration="none" x="600" y="570">UNREGISTERED</text><text fill="#eeeeee" stroke="none" font-family="Arial" font-size="24px" font-style="normal" font-weight="normal" text-decoration="none" x="600" y="600">UNREGISTERED</text><text fill="#eeeeee" stroke="none" font-family="Arial" font-size="24px" font-style="normal" font-weight="normal" text-decoration="none" x="600" y="630">UNREGISTERED</text><text fill="#eeeeee" stroke="none" font-family="Arial" font-size="24px" font-style="normal" font-weight="normal" text-decoration="none" x="800" y="0">UNREGISTERED</text><text fill="#eeeeee" stroke="none" font-family="Arial" font-size="24px" font-style="normal" font-weight="normal" text-decoration="none" x="800" y="30">UNREGISTERED</text><text fill="#eeeeee" stroke="none" font-family="Arial" font-size="24px" font-style="normal" font-weight="normal" text-decoration="none" x="800" y="60">UNREGISTERED</text><text fill="#eeeeee" stroke="none" font-family="Arial" font-size="24px" font-style="normal" font-weight="normal" text-decoration="none" x="800" y="90">UNREGISTERED</text><text fill="#eeeeee" stroke="none" font-family="Arial" font-size="24px" font-style="normal" font-weight="normal" text-decoration="none" x="800" y="120">UNREGISTERED</text><text fill="#eeeeee" stroke="none" font-family="Arial" font-size="24px" font-style="normal" font-weight="normal" text-decoration="none" x="800" y="150">UNREGISTERED</text><text fill="#eeeeee" stroke="none" font-family="Arial" font-size="24px" font-style="normal" font-weight="normal" text-decoration="none" x="800" y="180">UNREGISTERED</text><text fill="#eeeeee" stroke="none" font-family="Arial" font-size="24px" font-style="normal" font-weight="normal" text-decoration="none" x="800" y="210">UNREGISTERED</text><text fill="#eeeeee" stroke="none" font-family="Arial" font-size="24px" font-style="normal" font-weight="normal" text-decoration="none" x="800" y="240">UNREGISTERED</text><text fill="#eeeeee" stroke="none" font-family="Arial" font-size="24px" font-style="normal" font-weight="normal" text-decoration="none" x="800" y="270">UNREGISTERED</text><text fill="#eeeeee" stroke="none" font-family="Arial" font-size="24px" font-style="normal" font-weight="normal" text-decoration="none" x="800" y="300">UNREGISTERED</text><text fill="#eeeeee" stroke="none" font-family="Arial" font-size="24px" font-style="normal" font-weight="normal" text-decoration="none" x="800" y="330">UNREGISTERED</text><text fill="#eeeeee" stroke="none" font-family="Arial" font-size="24px" font-style="normal" font-weight="normal" text-decoration="none" x="800" y="360">UNREGISTERED</text><text fill="#eeeeee" stroke="none" font-family="Arial" font-size="24px" font-style="normal" font-weight="normal" text-decoration="none" x="800" y="390">UNREGISTERED</text><text fill="#eeeeee" stroke="none" font-family="Arial" font-size="24px" font-style="normal" font-weight="normal" text-decoration="none" x="800" y="420">UNREGISTERED</text><text fill="#eeeeee" stroke="none" font-family="Arial" font-size="24px" font-style="normal" font-weight="normal" text-decoration="none" x="800" y="450">UNREGISTERED</text><text fill="#eeeeee" stroke="none" font-family="Arial" font-size="24px" font-style="normal" font-weight="normal" text-decoration="none" x="800" y="480">UNREGISTERED</text><text fill="#eeeeee" stroke="none" font-family="Arial" font-size="24px" font-style="normal" font-weight="normal" text-decoration="none" x="800" y="510">UNREGISTERED</text><text fill="#eeeeee" stroke="none" font-family="Arial" font-size="24px" font-style="normal" font-weight="normal" text-decoration="none" x="800" y="540">UNREGISTERED</text><text fill="#eeeeee" stroke="none" font-family="Arial" font-size="24px" font-style="normal" font-weight="normal" text-decoration="none" x="800" y="570">UNREGISTERED</text><text fill="#eeeeee" stroke="none" font-family="Arial" font-size="24px" font-style="normal" font-weight="normal" text-decoration="none" x="800" y="600">UNREGISTERED</text><text fill="#eeeeee" stroke="none" font-family="Arial" font-size="24px" font-style="normal" font-weight="normal" text-decoration="none" x="800" y="630">UNREGISTERED</text><text fill="#eeeeee" stroke="none" font-family="Arial" font-size="24px" font-style="normal" font-weight="normal" text-decoration="none" x="1000" y="0">UNREGISTERED</text><text fill="#eeeeee" stroke="none" font-family="Arial" font-size="24px" font-style="normal" font-weight="normal" text-decoration="none" x="1000" y="30">UNREGISTERED</text><text fill="#eeeeee" stroke="none" font-family="Arial" font-size="24px" font-style="normal" font-weight="normal" text-decoration="none" x="1000" y="60">UNREGISTERED</text><text fill="#eeeeee" stroke="none" font-family="Arial" font-size="24px" font-style="normal" font-weight="normal" text-decoration="none" x="1000" y="90">UNREGISTERED</text><text fill="#eeeeee" stroke="none" font-family="Arial" font-size="24px" font-style="normal" font-weight="normal" text-decoration="none" x="1000" y="120">UNREGISTERED</text><text fill="#eeeeee" stroke="none" font-family="Arial" font-size="24px" font-style="normal" font-weight="normal" text-decoration="none" x="1000" y="150">UNREGISTERED</text><text fill="#eeeeee" stroke="none" font-family="Arial" font-size="24px" font-style="normal" font-weight="normal" text-decoration="none" x="1000" y="180">UNREGISTERED</text><text fill="#eeeeee" stroke="none" font-family="Arial" font-size="24px" font-style="normal" font-weight="normal" text-decoration="none" x="1000" y="210">UNREGISTERED</text><text fill="#eeeeee" stroke="none" font-family="Arial" font-size="24px" font-style="normal" font-weight="normal" text-decoration="none" x="1000" y="240">UNREGISTERED</text><text fill="#eeeeee" stroke="none" font-family="Arial" font-size="24px" font-style="normal" font-weight="normal" text-decoration="none" x="1000" y="270">UNREGISTERED</text><text fill="#eeeeee" stroke="none" font-family="Arial" font-size="24px" font-style="normal" font-weight="normal" text-decoration="none" x="1000" y="300">UNREGISTERED</text><text fill="#eeeeee" stroke="none" font-family="Arial" font-size="24px" font-style="normal" font-weight="normal" text-decoration="none" x="1000" y="330">UNREGISTERED</text><text fill="#eeeeee" stroke="none" font-family="Arial" font-size="24px" font-style="normal" font-weight="normal" text-decoration="none" x="1000" y="360">UNREGISTERED</text><text fill="#eeeeee" stroke="none" font-family="Arial" font-size="24px" font-style="normal" font-weight="normal" text-decoration="none" x="1000" y="390">UNREGISTERED</text><text fill="#eeeeee" stroke="none" font-family="Arial" font-size="24px" font-style="normal" font-weight="normal" text-decoration="none" x="1000" y="420">UNREGISTERED</text><text fill="#eeeeee" stroke="none" font-family="Arial" font-size="24px" font-style="normal" font-weight="normal" text-decoration="none" x="1000" y="450">UNREGISTERED</text><text fill="#eeeeee" stroke="none" font-family="Arial" font-size="24px" font-style="normal" font-weight="normal" text-decoration="none" x="1000" y="480">UNREGISTERED</text><text fill="#eeeeee" stroke="none" font-family="Arial" font-size="24px" font-style="normal" font-weight="normal" text-decoration="none" x="1000" y="510">UNREGISTERED</text><text fill="#eeeeee" stroke="none" font-family="Arial" font-size="24px" font-style="normal" font-weight="normal" text-decoration="none" x="1000" y="540">UNREGISTERED</text><text fill="#eeeeee" stroke="none" font-family="Arial" font-size="24px" font-style="normal" font-weight="normal" text-decoration="none" x="1000" y="570">UNREGISTERED</text><text fill="#eeeeee" stroke="none" font-family="Arial" font-size="24px" font-style="normal" font-weight="normal" text-decoration="none" x="1000" y="600">UNREGISTERED</text><text fill="#eeeeee" stroke="none" font-family="Arial" font-size="24px" font-style="normal" font-weight="normal" text-decoration="none" x="1000" y="630">UNREGISTERED</text><g transform="translate(-126,-238) scale(1,1)"><rect fill="#C0C0C0" stroke="none" x="471" y="255" width="704" height="616" opacity="0.2"/></g><g transform="translate(-126,-238) scale(1,1)"><rect fill="#ffffff" stroke="none" x="464" y="248" width="704" height="616"/></g><g transform="translate(-126,-238) scale(1,1)"><path fill="none" stroke="#000000" d="M 464 248 L 1168 248 L 1168 864 L 464 864 L 464 248 Z Z" stroke-miterlimit="10"/></g><g transform="translate(-126,-238) scale(1,1)"><g><path fill="none" stroke="none"/><text fill="#000000" stroke="none" font-family="Arial" font-size="13px" font-style="normal" font-weight="bold" text-decoration="none" x="674.399658203125" y="266">Salon De Belleza Cabello Bello JJ Página web</text></g></g><g transform="translate(-126,-238) scale(1,1)"><path fill="#C0C0C0" stroke="none" d="M 543 390.5 C 543 368.6847504 600.0836879999999 351 670.5 351 C 740.9163120000001 351 798 368.6847504 798 390.5 C 798 412.3152496 740.9163120000001 430 670.5 430 C 600.0836879999999 430 543 412.3152496 543 390.5 Z" opacity="0.2"/></g><g transform="translate(-126,-238) scale(1,1)"><path fill="#ffffff" stroke="none" d="M 536 383.5 C 536 361.6847504 593.0836879999999 344 663.5 344 C 733.9163120000001 344 791 361.6847504 791 383.5 C 791 405.3152496 733.9163120000001 423 663.5 423 C 593.0836879999999 423 536 405.3152496 536 383.5 Z"/></g><g transform="translate(-126,-238) scale(1,1)"><path fill="none" stroke="#000000" d="M 536 383.5 C 536 361.6847504 593.0836879999999 344 663.5 344 C 733.9163120000001 344 791 361.6847504 791 383.5 C 791 405.3152496 733.9163120000001 423 663.5 423 C 593.0836879999999 423 536 405.3152496 536 383.5 Z" stroke-miterlimit="10"/></g><g transform="translate(-126,-238) scale(1,1)"><g><path fill="none" stroke="none"/><text fill="#000000" stroke="none" font-family="Arial" font-size="13px" font-style="normal" font-weight="bold" text-decoration="none" x="615.832275390625" y="389">CU001 - Loguin</text></g></g><g transform="translate(-126,-238) scale(1,1)"><path fill="#C0C0C0" stroke="none" d="M 535 564.5 C 535 542.6847504 593.8745488 525 666.5 525 C 739.1254512 525 798 542.6847504 798 564.5 C 798 586.3152496 739.1254512 604 666.5 604 C 593.8745488 604 535 586.3152496 535 564.5 Z" opacity="0.2"/></g><g transform="translate(-126,-238) scale(1,1)"><path fill="#ffffff" stroke="none" d="M 528 557.5 C 528 535.6847504 586.8745488 518 659.5 518 C 732.1254512 518 791 535.6847504 791 557.5 C 791 579.3152496 732.1254512 597 659.5 597 C 586.8745488 597 528 579.3152496 528 557.5 Z"/></g><g transform="translate(-126,-238) scale(1,1)"><path fill="none" stroke="#000000" d="M 528 557.5 C 528 535.6847504 586.8745488 518 659.5 518 C 732.1254512 518 791 535.6847504 791 557.5 C 791 579.3152496 732.1254512 597 659.5 597 C 586.8745488 597 528 579.3152496 528 557.5 Z" stroke-miterlimit="10"/></g><g transform="translate(-126,-238) scale(1,1)"><g><path fill="none" stroke="none"/><text fill="#000000" stroke="none" font-family="Arial" font-size="13px" font-style="normal" font-weight="bold" text-decoration="none" x="577.142333984375" y="563">CU002 - Gestionar Usuario</text></g></g><g transform="translate(-126,-238) scale(1,1)"><path fill="#C0C0C0" stroke="none" d="M 863 458.5 C 863 438.8938896 918.2928272 423 986.5 423 C 1054.7071728 423 1110 438.8938896 1110 458.5 C 1110 478.1061104 1054.7071728 494 986.5 494 C 918.2928272 494 863 478.1061104 863 458.5 Z" opacity="0.2"/></g><g transform="translate(-126,-238) scale(1,1)"><path fill="#ffffff" stroke="none" d="M 856 451.5 C 856 431.8938896 911.2928272 416 979.5 416 C 1047.7071728 416 1103 431.8938896 1103 451.5 C 1103 471.1061104 1047.7071728 487 979.5 487 C 911.2928272 487 856 471.1061104 856 451.5 Z"/></g><g transform="translate(-126,-238) scale(1,1)"><path fill="none" stroke="#000000" d="M 856 451.5 C 856 431.8938896 911.2928272 416 979.5 416 C 1047.7071728 416 1103 431.8938896 1103 451.5 C 1103 471.1061104 1047.7071728 487 979.5 487 C 911.2928272 487 856 471.1061104 856 451.5 Z" stroke-miterlimit="10"/></g><g transform="translate(-126,-238) scale(1,1)"><g><path fill="none" stroke="none"/><text fill="#000000" stroke="none" font-family="Arial" font-size="13px" font-style="normal" font-weight="bold" text-decoration="none" x="951.31640625" y="457">Ver Perfil</text></g></g><g transform="translate(-126,-238) scale(1,1)"><path fill="#C0C0C0" stroke="none" d="M 855 566.5 C 855 549.1030288 912.0836879999999 535 982.5 535 C 1052.916312 535 1110 549.1030288 1110 566.5 C 1110 583.8969712 1052.916312 598 982.5 598 C 912.0836879999999 598 855 583.8969712 855 566.5 Z" opacity="0.2"/></g><g transform="translate(-126,-238) scale(1,1)"><path fill="#ffffff" stroke="none" d="M 848 559.5 C 848 542.1030288 905.0836879999999 528 975.5 528 C 1045.916312 528 1103 542.1030288 1103 559.5 C 1103 576.8969712 1045.916312 591 975.5 591 C 905.0836879999999 591 848 576.8969712 848 559.5 Z"/></g><g transform="translate(-126,-238) scale(1,1)"><path fill="none" stroke="#000000" d="M 848 559.5 C 848 542.1030288 905.0836879999999 528 975.5 528 C 1045.916312 528 1103 542.1030288 1103 559.5 C 1103 576.8969712 1045.916312 591 975.5 591 C 905.0836879999999 591 848 576.8969712 848 559.5 Z" stroke-miterlimit="10"/></g><g transform="translate(-126,-238) scale(1,1)"><g><path fill="none" stroke="none"/><text fill="#000000" stroke="none" font-family="Arial" font-size="13px" font-style="normal" font-weight="bold" text-decoration="none" x="926.372314453125" y="565">Actualizar Perfil</text></g></g><g transform="translate(-126,-238) scale(1,1)"><path fill="none" stroke="#000000" d="M 847 558 L 792 558" stroke-miterlimit="10" stroke-dasharray="3"/></g><g transform="translate(-126,-238) scale(1,1)"><path fill="none" stroke="#000000" d="M 802.1626748576241 553.790482243984 L 792 558 L 802.1626748576241 562.209517756016" stroke-miterlimit="10"/></g><g transform="translate(-126,-238) scale(1,1)"><g><path fill="none" stroke="none"/><text fill="#000000" stroke="none" font-family="Arial" font-size="13px" font-style="normal" font-weight="normal" text-decoration="none" x="791.5" y="593">«extend»</text></g></g><g transform="translate(-126,-238) scale(1,1)"><path fill="none" stroke="#000000" d="M 867 488 L 780 517" stroke-miterlimit="10" stroke-dasharray="3"/></g><g transform="translate(-126,-238) scale(1,1)"><path fill="none" stroke="#000000" d="M 788.3099935049528 509.7927808450386 L 780 517 L 790.9723262969391 517.7797792209975" stroke-miterlimit="10"/></g><g transform="translate(-126,-238) scale(1,1)"><g><path fill="none" stroke="none"/><text fill="#000000" stroke="none" font-family="Arial" font-size="13px" font-style="normal" font-weight="normal" text-decoration="none" x="804.5" y="535">«include»</text></g></g><g transform="translate(-126,-238) scale(1,1)"><path fill="#C0C0C0" stroke="none" d="M 559 738.5 C 559 714.4756112 607.129384 695 666.5 695 C 725.870616 695 774 714.4756112 774 738.5 C 774 762.5243888 725.870616 782 666.5 782 C 607.129384 782 559 762.5243888 559 738.5 Z" opacity="0.2"/></g><g transform="translate(-126,-238) scale(1,1)"><path fill="#ffffff" stroke="none" d="M 552 731.5 C 552 707.4756112 600.129384 688 659.5 688 C 718.870616 688 767 707.4756112 767 731.5 C 767 755.5243888 718.870616 775 659.5 775 C 600.129384 775 552 755.5243888 552 731.5 Z"/></g><g transform="translate(-126,-238) scale(1,1)"><path fill="none" stroke="#000000" d="M 552 731.5 C 552 707.4756112 600.129384 688 659.5 688 C 718.870616 688 767 707.4756112 767 731.5 C 767 755.5243888 718.870616 775 659.5 775 C 600.129384 775 552 755.5243888 552 731.5 Z" stroke-miterlimit="10"/></g><g transform="translate(-126,-238) scale(1,1)"><g><path fill="none" stroke="none"/><text fill="#000000" stroke="none" font-family="Arial" font-size="13px" font-style="normal" font-weight="bold" text-decoration="none" x="595.575927734375" y="737">Gestionar productos</text></g></g><g transform="translate(-126,-238) scale(1,1)"><path fill="#C0C0C0" stroke="none" d="M 863 663 C 863 645.3268864 909.5623808 631 967 631 C 1024.4376192 631 1071 645.3268864 1071 663 C 1071 680.6731136 1024.4376192 695 967 695 C 909.5623808 695 863 680.6731136 863 663 Z" opacity="0.2"/></g><g transform="translate(-126,-238) scale(1,1)"><path fill="#ffffff" stroke="none" d="M 856 656 C 856 638.3268864 902.5623808 624 960 624 C 1017.4376192 624 1064 638.3268864 1064 656 C 1064 673.6731136 1017.4376192 688 960 688 C 902.5623808 688 856 673.6731136 856 656 Z"/></g><g transform="translate(-126,-238) scale(1,1)"><path fill="none" stroke="#000000" d="M 856 656 C 856 638.3268864 902.5623808 624 960 624 C 1017.4376192 624 1064 638.3268864 1064 656 C 1064 673.6731136 1017.4376192 688 960 688 C 902.5623808 688 856 673.6731136 856 656 Z" stroke-miterlimit="10"/></g><g transform="translate(-126,-238) scale(1,1)"><g><path fill="none" stroke="none"/><text fill="#000000" stroke="none" font-family="Arial" font-size="13px" font-style="normal" font-weight="bold" text-decoration="none" x="916.29638671875" y="661.5">Ver productos</text></g></g><g transform="translate(-126,-238) scale(1,1)"><path fill="#C0C0C0" stroke="none" d="M 855 767 C 855 749.3268864 903.3532416 735 963 735 C 1022.6467584 735 1071 749.3268864 1071 767 C 1071 784.6731136 1022.6467584 799 963 799 C 903.3532416 799 855 784.6731136 855 767 Z" opacity="0.2"/></g><g transform="translate(-126,-238) scale(1,1)"><path fill="#ffffff" stroke="none" d="M 848 760 C 848 742.3268864 896.3532416 728 956 728 C 1015.6467584 728 1064 742.3268864 1064 760 C 1064 777.6731136 1015.6467584 792 956 792 C 896.3532416 792 848 777.6731136 848 760 Z"/></g><g transform="translate(-126,-238) scale(1,1)"><path fill="none" stroke="#000000" d="M 848 760 C 848 742.3268864 896.3532416 728 956 728 C 1015.6467584 728 1064 742.3268864 1064 760 C 1064 777.6731136 1015.6467584 792 956 792 C 896.3532416 792 848 777.6731136 848 760 Z" stroke-miterlimit="10"/></g><g transform="translate(-126,-238) scale(1,1)"><g><path fill="none" stroke="none"/><text fill="#000000" stroke="none" font-family="Arial" font-size="13px" font-style="normal" font-weight="bold" text-decoration="none" x="891.352294921875" y="765.5">Actualizar productos</text></g></g><g transform="translate(-126,-238) scale(1,1)"><path fill="none" stroke="#000000" d="M 855 682 L 768 704" stroke-miterlimit="10" stroke-dasharray="3"/></g><g transform="translate(-126,-238) scale(1,1)"><path fill="none" stroke="#000000" d="M 776.8205535246881 697.4274939697165 L 768 704 L 778.8845367945288 705.5896096277229" stroke-miterlimit="10"/></g><g transform="translate(-126,-238) scale(1,1)"><g><path fill="none" stroke="none"/><text fill="#000000" stroke="none" font-family="Arial" font-size="13px" font-style="normal" font-weight="normal" text-decoration="none" x="790.5" y="727">«include»</text></g></g><g transform="translate(-126,-238) scale(1,1)"><path fill="none" stroke="#000000" d="M 847 749 L 768 742" stroke-miterlimit="10" stroke-dasharray="3"/></g><g transform="translate(-126,-238) scale(1,1)"><path fill="none" stroke="#000000" d="M 778.4945526788206 738.7038865202393 L 768 742 L 777.7514735578127 747.0900651716142" stroke-miterlimit="10"/></g><g transform="translate(-126,-238) scale(1,1)"><g><path fill="none" stroke="none"/><text fill="#000000" stroke="none" font-family="Arial" font-size="13px" font-style="normal" font-weight="normal" text-decoration="none" x="777.5" y="779">«extend»</text></g></g><g transform="translate(-126,-238) scale(1,1)"><path fill="#ffffff" stroke="none" d="M 191.73018181818182 514.1700000000001 C 191.73018181818182 500.26899158400005 202.59614831941818 489 216 489 C 229.40385168058182 489 240.26981818181818 500.26899158400005 240.26981818181818 514.1700000000001 C 240.26981818181818 528.071008416 229.40385168058182 539.34 216 539.34 C 202.59614831941818 539.34 191.73018181818182 528.071008416 191.73018181818182 514.1700000000001 Z"/></g><g transform="translate(-126,-238) scale(1,1)"><path fill="none" stroke="#000000" d="M 191.73018181818182 514.1700000000001 C 191.73018181818182 500.26899158400005 202.59614831941818 489 216 489 C 229.40385168058182 489 240.26981818181818 500.26899158400005 240.26981818181818 514.1700000000001 C 240.26981818181818 528.071008416 229.40385168058182 539.34 216 539.34 C 202.59614831941818 539.34 191.73018181818182 528.071008416 191.73018181818182 514.1700000000001 Z" stroke-miterlimit="10"/></g><g transform="translate(-126,-238) scale(1,1)"><path fill="none" stroke="#000000" d="M 216 539.34 L 216 587.66" stroke-miterlimit="10"/></g><g transform="translate(-126,-238) scale(1,1)"><path fill="none" stroke="#000000" d="M 190.30254545454545 557.46 L 241.69745454545455 557.46" stroke-miterlimit="10"/></g><g transform="translate(-126,-238) scale(1,1)"><path fill="none" stroke="#000000" d="M 216 587.66 L 180.3090909090909 638" stroke-miterlimit="10"/></g><g transform="translate(-126,-238) scale(1,1)"><path fill="none" stroke="#000000" d="M 216 587.66 L 251.6909090909091 638" stroke-miterlimit="10"/></g><g transform="translate(-126,-238) scale(1,1)"><g><path fill="none" stroke="none"/><text fill="#000000" stroke="none" font-family="Arial" font-size="13px" font-style="normal" font-weight="bold" text-decoration="none" x="150.628662109375" y="657">Empleado - Logistica</text></g></g><g transform="translate(-126,-238) scale(1,1)"><path fill="none" stroke="#000000" d="M 297 541 L 568 424" stroke-miterlimit="10"/></g><g transform="translate(-126,-238) scale(1,1)"><path fill="none" stroke="#000000" d="M 560.3382773115728 431.89290855424287 L 568 424 L 557.0012147694518 424.1634730934328" stroke-miterlimit="10"/></g><g transform="translate(-126,-238) scale(1,1)"><path fill="none" stroke="#000000" d="M 297 573 L 527 563" stroke-miterlimit="10"/></g><g transform="translate(-126,-238) scale(1,1)"><path fill="none" stroke="#000000" d="M 517.0297668649936 567.6469830248906 L 527 563 L 516.6640673312673 559.235893749185" stroke-miterlimit="10"/></g><g transform="translate(-126,-238) scale(1,1)"><path fill="none" stroke="#000000" d="M 297 604 L 551 693" stroke-miterlimit="10"/></g><g transform="translate(-126,-238) scale(1,1)"><path fill="none" stroke="#000000" d="M 540.017043102163 693.6120929506661 L 551 693 L 542.8010616239275 685.6666917761924" stroke-miterlimit="10"/></g></g></svg>